<svg version="1.1" viewBox="0.0 0.0 960.0 720.0" fill="none" stroke="none" stroke-linecap="square" stroke-miterlimit="10" xmlns:xlink="http://www.w3.org/1999/xlink" xmlns="http://www.w3.org/2000/svg"><clipPath id="p.0"><path d="m0 0l960.0 0l0 720.0l-960.0 0l0 -720.0z" clip-rule="nonzero"/></clipPath><g clip-path="url(#p.0)"><path fill="#000000" fill-opacity="0.0" d="m0 0l960.0 0l0 720.0l-960.0 0z" fill-rule="evenodd"/><defs><linearGradient id="p.1" gradientUnits="userSpaceOnUse" gradientTransform="matrix(-30.983955637887316 0.0 0.0 30.983955637887316 0.0 0.0)" spreadMethod="pad" x1="1.777353889754093E-4" y1="-0.23888411439948384" x2="-30.983777901686242" y2="-0.23910844465672246"><stop offset="0.0" stop-color="#696969"/><stop offset="1.0" stop-color="#1d1d1d"/></linearGradient></defs><path fill="url(#p.1)" d="m960.0 -7.4015746l-960.0 0l0 760.6299l960.0 0z" fill-rule="evenodd"/><path fill="#434343" d="m0 -7.3858266l717.2598 0l0 760.6299l-717.2598 0z" fill-rule="evenodd"/><path fill="#9b7c1d" d="m742.9207 711.0331c0.4703369 1.7327881 1.1896362 3.946167 2.157898 6.6400146l3.1746216 8.867859l-10.312317 0l3.3406372 -9.39209c0.70544434 -2.0240479 1.251831 -4.062622 1.6391602 -6.1157837zm-2.0748901 -3.3636475l-11.681763 32.020447l4.274292 0l3.3406372 -9.697876l12.719177 0l3.5481567 9.697876l4.5855103 0l-12.449463 -32.020447z" fill-rule="evenodd"/><path fill="#9b7c1d" d="m768.4629 715.9694c-0.87145996 0 -1.6714478 0.26208496 -2.3999634 0.7863159c-0.723938 0.5241699 -1.5147095 1.6090088 -2.3723145 3.2544556l0 -3.5166016l-3.3613892 0l0 23.19629l3.7348633 0l0 -12.144165c0 -1.6600342 0.20751953 -3.1889648 0.62249756 -4.586853c0.27661133 -0.9173584 0.74005127 -1.6333008 1.3901978 -2.1478271c0.65008545 -0.51934814 1.3832397 -0.7789917 2.1994019 -0.7789917c0.91296387 0 1.8259277 0.28393555 2.7388916 0.85180664l1.286438 -3.647644c-1.300293 -0.84454346 -2.579834 -1.2667847 -3.838623 -1.2667847zm10.457581 -7.5792236l-3.7141113 2.3589478l0 5.744446l-2.7388916 0l0 3.0579224l2.7388916 0l0 13.345459c0 2.3589478 0.15216064 3.9073486 0.45648193 4.6450806c0.3043213 0.7329712 0.82995605 1.3251343 1.5769653 1.7764893c0.74694824 0.45141602 1.7982178 0.677124 3.1538696 0.677124c0.82995605 0 1.7705688 -0.11651611 2.8218384 -0.3494873l-0.5394287 -3.4729004c-0.67785645 0.10192871 -1.2242432 0.15289307 -1.6392212 0.15289307c-0.5532837 0 -0.97979736 -0.09460449 -1.279541 -0.28393555c-0.29510498 -0.18927002 -0.50946045 -0.4440918 -0.6431885 -0.76446533c-0.12908936 -0.3203125 -0.19366455 -1.0411377 -0.19366455 -2.1623535l0 -13.563904l3.7556152 0l0 -3.0579224l-3.7556152 0l0 -8.103394z" fill-rule="evenodd"/><path fill="#9b7c1d" d="m797.3042 707.12335c-2.0472412 0 -3.9077759 0.36401367 -5.581543 1.092102c-1.6737671 0.7280884 -2.94635 1.7958984 -3.81781 3.2034912c-0.87145996 1.402771 -1.30719 2.9122925 -1.30719 4.5286255c0 1.4707031 0.3550415 2.8005981 1.0651245 3.9898071c0.71466064 1.1843262 1.7982178 2.176941 3.2506714 2.9777832c1.1204834 0.62615967 3.0778198 1.2935181 5.8720093 2.0021973c2.7942505 0.7037964 4.5994263 1.2231445 5.4155273 1.5580444c1.272644 0.50964355 2.185608 1.140686 2.7388916 1.8930054c0.5532837 0.74749756 0.82995605 1.6235962 0.82995605 2.628357c0 0.99017334 -0.28814697 1.9050903 -0.864563 2.744812c-0.5717163 0.83483887 -1.4454956 1.4924927 -2.6212769 1.9730225c-1.1757812 0.4805298 -2.531372 0.7208252 -4.0668335 0.7208252c-1.729126 0 -3.2852783 -0.31549072 -4.668579 -0.9465332c-1.3832397 -0.6358032 -2.404541 -1.4658203 -3.0639038 -2.4899902c-0.65478516 -1.0289917 -1.0720825 -2.3443604 -1.2518921 -3.946106l-3.7971191 0.3494873c0.055358887 2.140503 0.6109619 4.0601807 1.6668701 5.759033c1.0604858 1.6939697 2.5198975 2.9631958 4.3780518 3.8078003c1.862854 0.84454346 4.1705933 1.2667847 6.92334 1.2667847c2.171692 0 4.1244507 -0.41741943 5.8581543 -1.2522583c1.7382812 -0.8397217 3.0708618 -2.0119019 3.9976807 -3.5165405c0.9267578 -1.5095825 1.3901978 -3.11615 1.3901978 -4.819824c0 -1.7182617 -0.42193604 -3.2350464 -1.2657471 -4.550415c-0.84375 -1.3202515 -2.151001 -2.409912 -3.9215698 -3.269043c-1.2172852 -0.5824585 -3.4627686 -1.2620239 -6.7365723 -2.0386353c-3.269104 -0.7814331 -5.2910156 -1.543457 -6.065613 -2.2861328c-0.7885132 -0.74261475 -1.1827393 -1.6890869 -1.1827393 -2.8394165c0 -1.3251343 0.555603 -2.4560547 1.6668701 -3.3928223c1.1158447 -0.9416504 2.8910522 -1.4124756 5.3256226 -1.4124756c2.3377075 0 4.1036987 0.5169678 5.2979126 1.5507812c1.1988525 1.0338745 1.9020386 2.5628052 2.109497 4.586853l3.859375 -0.30578613c-0.06921387 -1.878418 -0.5671997 -3.5602417 -1.4939575 -5.045532c-0.92681885 -1.4852295 -2.2524414 -2.6088867 -3.9769287 -3.3709717c-1.7198486 -0.7668457 -3.7071533 -1.1503296 -5.961914 -1.1503296z" fill-rule="evenodd"/><path fill="#9b7c1d" d="m823.57263 715.9694c-1.8951416 0 -3.6495972 0.47076416 -5.2633667 1.4124146c-1.6092529 0.9367676 -2.8080444 2.3444214 -3.5965576 4.2228394c-0.78845215 1.878418 -1.1826782 4.0698853 -1.1826782 6.574463c0 3.873291 0.9152832 6.848694 2.7457886 8.926086c1.835144 2.0725708 4.260498 3.1088867 7.276062 3.1088867c2.4068604 0 4.435669 -0.7523804 6.0863647 -2.257019c1.6553345 -1.5095215 2.6835938 -3.5966797 3.0847168 -6.2614136l-3.6726074 -0.5023804c-0.26281738 1.9658203 -0.8852539 3.421936 -1.8673706 4.368408c-0.98217773 0.9465332 -2.2063599 1.4197388 -3.6726074 1.4197388c-1.8259277 0 -3.3060303 -0.7062378 -4.4403076 -2.1186523c-1.1343384 -1.4124756 -1.701477 -3.6767578 -1.701477 -6.7929077c0 -3.0724487 0.5878906 -5.317322 1.7636719 -6.734619c1.1757812 -1.4221802 2.7043457 -2.1332397 4.5855713 -2.1332397c1.2449341 0 2.305481 0.39312744 3.1815186 1.1794434c0.8807373 0.7863159 1.4939575 1.9585571 1.8397827 3.5166016l3.6311035 -0.5897217c-0.428833 -2.3444214 -1.4040527 -4.152466 -2.9256592 -5.4241333c-1.5215454 -1.2765503 -3.4788818 -1.9147949 -5.8719482 -1.9147949z" fill-rule="evenodd"/><path fill="#9b7c1d" d="m849.98627 728.04803l0 1.4415894c0 1.7327881 -0.20056152 3.043335 -0.6017456 3.9315796c-0.52563477 1.1503296 -1.3486938 2.0579834 -2.4691162 2.7229614c-1.1204834 0.66015625 -2.4000244 0.99017334 -3.838623 0.99017334c-1.4524536 0 -2.5567627 -0.34942627 -3.3129272 -1.0484009c-0.7515869 -0.6989746 -1.1273804 -1.5726318 -1.1273804 -2.6210327c0 -0.6843872 0.1729126 -1.3056641 0.5187378 -1.8638916c0.3458252 -0.5630493 0.836853 -0.99017334 1.4732056 -1.2813721c0.6362915 -0.29125977 1.722168 -0.5533447 3.2575684 -0.7863159c2.7112427 -0.40771484 4.744629 -0.90283203 6.100281 -1.4852905zm-4.751587 -12.078613c-1.8950806 0 -3.5618896 0.27423096 -5.0005493 0.8226929c-1.4385986 0.54364014 -2.538269 1.3226318 -3.2990723 2.3370972c-0.7608032 1.0095825 -1.30719 2.3370972 -1.6392212 3.982544l3.6518555 0.52423096c0.40118408 -1.6454468 1.019043 -2.7909546 1.8536377 -3.4365234c0.83917236 -0.6503906 2.137146 -0.97558594 3.893921 -0.97558594c1.8812256 0 3.2990723 0.4440918 4.25354 1.3323364c0.70544434 0.65527344 1.0582275 1.7838135 1.0582275 3.385559c0 0.14556885 -0.006958008 0.48779297 -0.020751953 1.0265503c-1.4248047 0.52423096 -3.6449585 0.97558594 -6.6604614 1.354187c-1.4801025 0.18933105 -2.586731 0.3859253 -3.3198853 0.5897827c-0.9959717 0.29119873 -1.8927612 0.72076416 -2.6904907 1.2886353c-0.7930908 0.5679321 -1.4362793 1.3226929 -1.9296265 2.2643433c-0.48876953 0.9367676 -0.7331543 1.9730225 -0.7331543 3.1088257c0 1.9366455 0.6501465 3.5286865 1.9504395 4.776123c1.3002319 1.2425537 3.1607666 1.8638916 5.581482 1.8638916c1.4663086 0 2.8380127 -0.25482178 4.1152344 -0.76452637c1.2818604 -0.50964355 2.61438 -1.3833008 3.9976807 -2.6210327c0.11065674 1.092102 0.35968018 2.0458984 0.74694824 2.8613281l3.900879 0c-0.4703369 -0.8882446 -0.78619385 -1.8153076 -0.9475708 -2.78125c-0.15673828 -0.97076416 -0.23516846 -3.2835693 -0.23516846 -6.9384766l0 -5.2420654c0 -1.7473755 -0.06225586 -2.9559937 -0.18670654 -3.6257935c-0.22131348 -1.0775757 -0.6086426 -1.9682007 -1.1619873 -2.671997c-0.5532837 -0.7086792 -1.4178467 -1.2960205 -2.593628 -1.7619629c-1.1757812 -0.46594238 -2.7042847 -0.6989136 -4.5855713 -0.6989136z" fill-rule="evenodd"/><path fill="#9b7c1d" d="m868.99243 719.04913c1.6046143 0 2.9832764 0.73535156 4.1360474 2.2060547c1.1572876 1.4707031 1.7359619 3.684021 1.7359619 6.6399536c0 3.1016235 -0.59246826 5.392578 -1.7774658 6.872986c-1.1804199 1.4755859 -2.600586 2.2133179 -4.260498 2.2133179c-1.6322632 0 -3.022461 -0.713501 -4.1705933 -2.140503c-1.1481323 -1.427002 -1.722168 -3.6330566 -1.722168 -6.618164c0 -2.9850464 0.6109619 -5.259094 1.8328247 -6.8219604c1.2265015 -1.56781 2.6351318 -2.3516846 4.225891 -2.3516846zm0.3527832 -3.079712c-1.4385986 0 -2.6628418 0.29608154 -3.6726074 0.8882446c-1.0098267 0.5872803 -1.9158325 1.4706421 -2.7181396 2.6501465l0 -3.0142212l-3.402893 0l0 32.086l3.7348633 0l0 -11.292358c0.6362915 0.8446045 1.447815 1.5435181 2.4345703 2.0968628c0.991333 0.5533447 2.109497 0.8300171 3.3544312 0.8300171c1.701416 0 3.3222046 -0.5048218 4.8622437 -1.5144043c1.5446167 -1.0144653 2.720459 -2.470581 3.5273438 -4.368408c0.81152344 -1.90271 1.2172852 -4.0407715 1.2172852 -6.4143066c0 -2.2133179 -0.36657715 -4.2470703 -1.0997314 -6.1011963c-0.73309326 -1.8590088 -1.8189697 -3.2981567 -3.2575684 -4.317444c-1.4386597 -1.0192871 -3.0985718 -1.5289307 -4.9797974 -1.5289307z" fill-rule="evenodd"/><path fill="#9b7c1d" d="m897.2528 728.04803l0 1.4415894c0 1.7327881 -0.20062256 3.043335 -0.6017456 3.9315796c-0.52563477 1.1503296 -1.3486938 2.0579834 -2.4691772 2.7229614c-1.1204224 0.66015625 -2.3999634 0.99017334 -3.838562 0.99017334c-1.4524536 0 -2.5567627 -0.34942627 -3.3129272 -1.0484009c-0.7515869 -0.6989746 -1.1273804 -1.5726318 -1.1273804 -2.6210327c0 -0.6843872 0.1729126 -1.3056641 0.5187378 -1.8638916c0.3458252 -0.5630493 0.836853 -0.99017334 1.4731445 -1.2813721c0.63635254 -0.29125977 1.722229 -0.5533447 3.2576294 -0.7863159c2.7112427 -0.40771484 4.744629 -0.90283203 6.100281 -1.4852905zm-4.751587 -12.078613c-1.8950806 0 -3.5619507 0.27423096 -5.0005493 0.8226929c-1.4385986 0.54364014 -2.538269 1.3226318 -3.2990723 2.3370972c-0.7608032 1.0095825 -1.30719 2.3370972 -1.6392212 3.982544l3.6518555 0.52423096c0.40118408 -1.6454468 1.019043 -2.7909546 1.8535767 -3.4365234c0.8392334 -0.6503906 2.137207 -0.97558594 3.893921 -0.97558594c1.8812866 0 3.2991333 0.4440918 4.253601 1.3323364c0.70544434 0.65527344 1.0582275 1.7838135 1.0582275 3.385559c0 0.14556885 -0.006958008 0.48779297 -0.020751953 1.0265503c-1.4248047 0.52423096 -3.6449585 0.97558594 -6.6605225 1.354187c-1.4801025 0.18933105 -2.586731 0.3859253 -3.3198242 0.5897827c-0.9959717 0.29119873 -1.8928223 0.72076416 -2.6904907 1.2886353c-0.7930908 0.5679321 -1.4362793 1.3226929 -1.9296875 2.2643433c-0.4887085 0.9367676 -0.73309326 1.9730225 -0.73309326 3.1088257c0 1.9366455 0.6501465 3.5286865 1.9503784 4.776123c1.300293 1.2425537 3.1608276 1.8638916 5.581543 1.8638916c1.4662476 0 2.8380127 -0.25482178 4.1152344 -0.76452637c1.2818604 -0.50964355 2.61438 -1.3833008 3.9976807 -2.6210327c0.11065674 1.092102 0.35961914 2.0458984 0.74694824 2.8613281l3.900879 0c-0.4703369 -0.8882446 -0.78619385 -1.8153076 -0.9475708 -2.78125c-0.15679932 -0.97076416 -0.23516846 -3.2835693 -0.23516846 -6.9384766l0 -5.2420654c0 -1.7473755 -0.06225586 -2.9559937 -0.18670654 -3.6257935c-0.22137451 -1.0775757 -0.6086426 -1.9682007 -1.1619873 -2.671997c-0.5532837 -0.7086792 -1.4178467 -1.2960205 -2.593628 -1.7619629c-1.1757812 -0.46594238 -2.7042847 -0.6989136 -4.5855713 -0.6989136z" fill-rule="evenodd"/><path fill="#9b7c1d" d="m915.13855 719.2239c1.701416 0 3.1331177 0.74261475 4.295044 2.2279053c1.1619873 1.4852295 1.7429199 3.8150635 1.7429199 6.989441c0 2.8831177 -0.5717163 5.0285034 -1.715271 6.436096c-1.138855 1.402771 -2.524475 2.104126 -4.1567383 2.104126c-1.6184082 0 -3.022461 -0.73535156 -4.212036 -2.2060547c-1.1896362 -1.4707031 -1.7844238 -3.6912842 -1.7844238 -6.661804c0 -3.0724487 0.555603 -5.3222046 1.6668091 -6.7492065c1.1158447 -1.427002 2.5037231 -2.140503 4.1636963 -2.140503zm5.7267456 -11.554443l0 11.488892c-0.6501465 -0.94647217 -1.4939575 -1.7133789 -2.531372 -2.3006592c-1.0374756 -0.5921631 -2.2201538 -0.8882446 -3.5480957 -0.8882446c-1.8121338 0 -3.451294 0.50231934 -4.9176025 1.5070801c-1.4662476 1.0047607 -2.565918 2.4511719 -3.2990723 4.3392944c-0.7331543 1.8832397 -1.0997314 3.982544 -1.0997314 6.2977905c0 2.3734741 0.40344238 4.4752197 1.2103882 6.3050537c0.81152344 1.8250732 1.9526978 3.2471924 3.423584 4.2664795c1.4755249 1.0193481 3.0916138 1.5289917 4.8483887 1.5289917c2.7112427 0 4.765381 -1.1503906 6.1624756 -3.4510498l0 2.9268188l3.465149 0l0 -32.020447z" fill-rule="evenodd"/><path fill="#9b7c1d" d="m939.5395 719.202c1.8951416 0 3.437439 0.75720215 4.627075 2.2715454c0.7746582 0.975647 1.2449341 2.4390259 1.4109497 4.390259l-12.30426 0c0.12451172 -2.0239868 0.77001953 -3.6403198 1.9365845 -4.848938c1.1712036 -1.2085571 2.614441 -1.8128662 4.329651 -1.8128662zm-0.04144287 -3.232605c-3.043213 0 -5.519287 1.0775146 -7.4282227 3.232605c-1.9089355 2.1550903 -2.8634033 5.183838 -2.8634033 9.086304c0 3.7713623 0.9429321 6.703064 2.8287964 8.795044c1.8905029 2.0871582 4.4472656 3.1307373 7.670288 3.1307373c2.559082 0 4.661621 -0.65527344 6.3077393 -1.9658203c1.6461182 -1.3104858 2.7734985 -3.1525269 3.38208 -5.526062l-3.859314 -0.50231934c-0.5671387 1.6599731 -1.3348389 2.8685913 -2.3031616 3.6257935c-0.9682617 0.7571411 -2.137146 1.1357422 -3.5065918 1.1357422c-1.8397827 0 -3.375183 -0.677063 -4.6063232 -2.031311c-1.2310791 -1.354187 -1.9158325 -3.30542 -2.0541382 -5.8536377l16.433289 0c0.0138549805 -0.46600342 0.020751953 -0.8154297 0.020751953 -1.0484619c0 -3.8295898 -0.9337158 -6.800171 -2.8011475 -8.91156c-1.8673706 -2.1113892 -4.274292 -3.1670532 -7.220642 -3.1670532z" fill-rule="evenodd"/><path stroke="#9b7c1d" stroke-width="2.0" stroke-linejoin="round" stroke-linecap="butt" d="m742.9207 711.0331c0.4703369 1.7327881 1.1896362 3.946167 2.157898 6.6400146l3.1746216 8.867859l-10.312317 0l3.3406372 -9.39209c0.70544434 -2.0240479 1.251831 -4.062622 1.6391602 -6.1157837zm-2.0748901 -3.3636475l-11.681763 32.020447l4.274292 0l3.3406372 -9.697876l12.719177 0l3.5481567 9.697876l4.5855103 0l-12.449463 -32.020447z" fill-rule="evenodd"/><path stroke="#9b7c1d" stroke-width="2.0" stroke-linejoin="round" stroke-linecap="butt" d="m768.4629 715.9694c-0.87145996 0 -1.6714478 0.26208496 -2.3999634 0.7863159c-0.723938 0.5241699 -1.5147095 1.6090088 -2.3723145 3.2544556l0 -3.5166016l-3.3613892 0l0 23.19629l3.7348633 0l0 -12.144165c0 -1.6600342 0.20751953 -3.1889648 0.62249756 -4.586853c0.27661133 -0.9173584 0.74005127 -1.6333008 1.3901978 -2.1478271c0.65008545 -0.51934814 1.3832397 -0.7789917 2.1994019 -0.7789917c0.91296387 0 1.8259277 0.28393555 2.7388916 0.85180664l1.286438 -3.647644c-1.300293 -0.84454346 -2.579834 -1.2667847 -3.838623 -1.2667847zm10.457581 -7.5792236l-3.7141113 2.3589478l0 5.744446l-2.7388916 0l0 3.0579224l2.7388916 0l0 13.345459c0 2.3589478 0.15216064 3.9073486 0.45648193 4.6450806c0.3043213 0.7329712 0.82995605 1.3251343 1.5769653 1.7764893c0.74694824 0.45141602 1.7982178 0.677124 3.1538696 0.677124c0.82995605 0 1.7705688 -0.11651611 2.8218384 -0.3494873l-0.5394287 -3.4729004c-0.67785645 0.10192871 -1.2242432 0.15289307 -1.6392212 0.15289307c-0.5532837 0 -0.97979736 -0.09460449 -1.279541 -0.28393555c-0.29510498 -0.18927002 -0.50946045 -0.4440918 -0.6431885 -0.76446533c-0.12908936 -0.3203125 -0.19366455 -1.0411377 -0.19366455 -2.1623535l0 -13.563904l3.7556152 0l0 -3.0579224l-3.7556152 0l0 -8.103394z" fill-rule="evenodd"/><path stroke="#9b7c1d" stroke-width="2.0" stroke-linejoin="round" stroke-linecap="butt" d="m797.3042 707.12335c-2.0472412 0 -3.9077759 0.36401367 -5.581543 1.092102c-1.6737671 0.7280884 -2.94635 1.7958984 -3.81781 3.2034912c-0.87145996 1.402771 -1.30719 2.9122925 -1.30719 4.5286255c0 1.4707031 0.3550415 2.8005981 1.0651245 3.9898071c0.71466064 1.1843262 1.7982178 2.176941 3.2506714 2.9777832c1.1204834 0.62615967 3.0778198 1.2935181 5.8720093 2.0021973c2.7942505 0.7037964 4.5994263 1.2231445 5.4155273 1.5580444c1.272644 0.50964355 2.185608 1.140686 2.7388916 1.8930054c0.5532837 0.74749756 0.82995605 1.6235962 0.82995605 2.628357c0 0.99017334 -0.28814697 1.9050903 -0.864563 2.744812c-0.5717163 0.83483887 -1.4454956 1.4924927 -2.6212769 1.9730225c-1.1757812 0.4805298 -2.531372 0.7208252 -4.0668335 0.7208252c-1.729126 0 -3.2852783 -0.31549072 -4.668579 -0.9465332c-1.3832397 -0.6358032 -2.404541 -1.4658203 -3.0639038 -2.4899902c-0.65478516 -1.0289917 -1.0720825 -2.3443604 -1.2518921 -3.946106l-3.7971191 0.3494873c0.055358887 2.140503 0.6109619 4.0601807 1.6668701 5.759033c1.0604858 1.6939697 2.5198975 2.9631958 4.3780518 3.8078003c1.862854 0.84454346 4.1705933 1.2667847 6.92334 1.2667847c2.171692 0 4.1244507 -0.41741943 5.8581543 -1.2522583c1.7382812 -0.8397217 3.0708618 -2.0119019 3.9976807 -3.5165405c0.9267578 -1.5095825 1.3901978 -3.11615 1.3901978 -4.819824c0 -1.7182617 -0.42193604 -3.2350464 -1.2657471 -4.550415c-0.84375 -1.3202515 -2.151001 -2.409912 -3.9215698 -3.269043c-1.2172852 -0.5824585 -3.4627686 -1.2620239 -6.7365723 -2.0386353c-3.269104 -0.7814331 -5.2910156 -1.543457 -6.065613 -2.2861328c-0.7885132 -0.74261475 -1.1827393 -1.6890869 -1.1827393 -2.8394165c0 -1.3251343 0.555603 -2.4560547 1.6668701 -3.3928223c1.1158447 -0.9416504 2.8910522 -1.4124756 5.3256226 -1.4124756c2.3377075 0 4.1036987 0.5169678 5.2979126 1.5507812c1.1988525 1.0338745 1.9020386 2.5628052 2.109497 4.586853l3.859375 -0.30578613c-0.06921387 -1.878418 -0.5671997 -3.5602417 -1.4939575 -5.045532c-0.92681885 -1.4852295 -2.2524414 -2.6088867 -3.9769287 -3.3709717c-1.7198486 -0.7668457 -3.7071533 -1.1503296 -5.961914 -1.1503296z" fill-rule="evenodd"/><path stroke="#9b7c1d" stroke-width="2.0" stroke-linejoin="round" stroke-linecap="butt" d="m823.57263 715.9694c-1.8951416 0 -3.6495972 0.47076416 -5.2633667 1.4124146c-1.6092529 0.9367676 -2.8080444 2.3444214 -3.5965576 4.2228394c-0.78845215 1.878418 -1.1826782 4.0698853 -1.1826782 6.574463c0 3.873291 0.9152832 6.848694 2.7457886 8.926086c1.835144 2.0725708 4.260498 3.1088867 7.276062 3.1088867c2.4068604 0 4.435669 -0.7523804 6.0863647 -2.257019c1.6553345 -1.5095215 2.6835938 -3.5966797 3.0847168 -6.2614136l-3.6726074 -0.5023804c-0.26281738 1.9658203 -0.8852539 3.421936 -1.8673706 4.368408c-0.98217773 0.9465332 -2.2063599 1.4197388 -3.6726074 1.4197388c-1.8259277 0 -3.3060303 -0.7062378 -4.4403076 -2.1186523c-1.1343384 -1.4124756 -1.701477 -3.6767578 -1.701477 -6.7929077c0 -3.0724487 0.5878906 -5.317322 1.7636719 -6.734619c1.1757812 -1.4221802 2.7043457 -2.1332397 4.5855713 -2.1332397c1.2449341 0 2.305481 0.39312744 3.1815186 1.1794434c0.8807373 0.7863159 1.4939575 1.9585571 1.8397827 3.5166016l3.6311035 -0.5897217c-0.428833 -2.3444214 -1.4040527 -4.152466 -2.9256592 -5.4241333c-1.5215454 -1.2765503 -3.4788818 -1.9147949 -5.8719482 -1.9147949z" fill-rule="evenodd"/><path stroke="#9b7c1d" stroke-width="2.0" stroke-linejoin="round" stroke-linecap="butt" d="m849.98627 728.04803l0 1.4415894c0 1.7327881 -0.20056152 3.043335 -0.6017456 3.9315796c-0.52563477 1.1503296 -1.3486938 2.0579834 -2.4691162 2.7229614c-1.1204834 0.66015625 -2.4000244 0.99017334 -3.838623 0.99017334c-1.4524536 0 -2.5567627 -0.34942627 -3.3129272 -1.0484009c-0.7515869 -0.6989746 -1.1273804 -1.5726318 -1.1273804 -2.6210327c0 -0.6843872 0.1729126 -1.3056641 0.5187378 -1.8638916c0.3458252 -0.5630493 0.836853 -0.99017334 1.4732056 -1.2813721c0.6362915 -0.29125977 1.722168 -0.5533447 3.2575684 -0.7863159c2.7112427 -0.40771484 4.744629 -0.90283203 6.100281 -1.4852905zm-4.751587 -12.078613c-1.8950806 0 -3.5618896 0.27423096 -5.0005493 0.8226929c-1.4385986 0.54364014 -2.538269 1.3226318 -3.2990723 2.3370972c-0.7608032 1.0095825 -1.30719 2.3370972 -1.6392212 3.982544l3.6518555 0.52423096c0.40118408 -1.6454468 1.019043 -2.7909546 1.8536377 -3.4365234c0.83917236 -0.6503906 2.137146 -0.97558594 3.893921 -0.97558594c1.8812256 0 3.2990723 0.4440918 4.25354 1.3323364c0.70544434 0.65527344 1.0582275 1.7838135 1.0582275 3.385559c0 0.14556885 -0.006958008 0.48779297 -0.020751953 1.0265503c-1.4248047 0.52423096 -3.6449585 0.97558594 -6.6604614 1.354187c-1.4801025 0.18933105 -2.586731 0.3859253 -3.3198853 0.5897827c-0.9959717 0.29119873 -1.8927612 0.72076416 -2.6904907 1.2886353c-0.7930908 0.5679321 -1.4362793 1.3226929 -1.9296265 2.2643433c-0.48876953 0.9367676 -0.7331543 1.9730225 -0.7331543 3.1088257c0 1.9366455 0.6501465 3.5286865 1.9504395 4.776123c1.3002319 1.2425537 3.1607666 1.8638916 5.581482 1.8638916c1.4663086 0 2.8380127 -0.25482178 4.1152344 -0.76452637c1.2818604 -0.50964355 2.61438 -1.3833008 3.9976807 -2.6210327c0.11065674 1.092102 0.35968018 2.0458984 0.74694824 2.8613281l3.900879 0c-0.4703369 -0.8882446 -0.78619385 -1.8153076 -0.9475708 -2.78125c-0.15673828 -0.97076416 -0.23516846 -3.2835693 -0.23516846 -6.9384766l0 -5.2420654c0 -1.7473755 -0.06225586 -2.9559937 -0.18670654 -3.6257935c-0.22131348 -1.0775757 -0.6086426 -1.9682007 -1.1619873 -2.671997c-0.5532837 -0.7086792 -1.4178467 -1.2960205 -2.593628 -1.7619629c-1.1757812 -0.46594238 -2.7042847 -0.6989136 -4.5855713 -0.6989136z" fill-rule="evenodd"/><path stroke="#9b7c1d" stroke-width="2.0" stroke-linejoin="round" stroke-linecap="butt" d="m868.99243 719.04913c1.6046143 0 2.9832764 0.73535156 4.1360474 2.2060547c1.1572876 1.4707031 1.7359619 3.684021 1.7359619 6.6399536c0 3.1016235 -0.59246826 5.392578 -1.7774658 6.872986c-1.1804199 1.4755859 -2.600586 2.2133179 -4.260498 2.2133179c-1.6322632 0 -3.022461 -0.713501 -4.1705933 -2.140503c-1.1481323 -1.427002 -1.722168 -3.6330566 -1.722168 -6.618164c0 -2.9850464 0.6109619 -5.259094 1.8328247 -6.8219604c1.2265015 -1.56781 2.6351318 -2.3516846 4.225891 -2.3516846zm0.3527832 -3.079712c-1.4385986 0 -2.6628418 0.29608154 -3.6726074 0.8882446c-1.0098267 0.5872803 -1.9158325 1.4706421 -2.7181396 2.6501465l0 -3.0142212l-3.402893 0l0 32.086l3.7348633 0l0 -11.292358c0.6362915 0.8446045 1.447815 1.5435181 2.4345703 2.0968628c0.991333 0.5533447 2.109497 0.8300171 3.3544312 0.8300171c1.701416 0 3.3222046 -0.5048218 4.8622437 -1.5144043c1.5446167 -1.0144653 2.720459 -2.470581 3.5273438 -4.368408c0.81152344 -1.90271 1.2172852 -4.0407715 1.2172852 -6.4143066c0 -2.2133179 -0.36657715 -4.2470703 -1.0997314 -6.1011963c-0.73309326 -1.8590088 -1.8189697 -3.2981567 -3.2575684 -4.317444c-1.4386597 -1.0192871 -3.0985718 -1.5289307 -4.9797974 -1.5289307z" fill-rule="evenodd"/><path stroke="#9b7c1d" stroke-width="2.0" stroke-linejoin="round" stroke-linecap="butt" d="m897.2528 728.04803l0 1.4415894c0 1.7327881 -0.20062256 3.043335 -0.6017456 3.9315796c-0.52563477 1.1503296 -1.3486938 2.0579834 -2.4691772 2.7229614c-1.1204224 0.66015625 -2.3999634 0.99017334 -3.838562 0.99017334c-1.4524536 0 -2.5567627 -0.34942627 -3.3129272 -1.0484009c-0.7515869 -0.6989746 -1.1273804 -1.5726318 -1.1273804 -2.6210327c0 -0.6843872 0.1729126 -1.3056641 0.5187378 -1.8638916c0.3458252 -0.5630493 0.836853 -0.99017334 1.4731445 -1.2813721c0.63635254 -0.29125977 1.722229 -0.5533447 3.2576294 -0.7863159c2.7112427 -0.40771484 4.744629 -0.90283203 6.100281 -1.4852905zm-4.751587 -12.078613c-1.8950806 0 -3.5619507 0.27423096 -5.0005493 0.8226929c-1.4385986 0.54364014 -2.538269 1.3226318 -3.2990723 2.3370972c-0.7608032 1.0095825 -1.30719 2.3370972 -1.6392212 3.982544l3.6518555 0.52423096c0.40118408 -1.6454468 1.019043 -2.7909546 1.8535767 -3.4365234c0.8392334 -0.6503906 2.137207 -0.97558594 3.893921 -0.97558594c1.8812866 0 3.2991333 0.4440918 4.253601 1.3323364c0.70544434 0.65527344 1.0582275 1.7838135 1.0582275 3.385559c0 0.14556885 -0.006958008 0.48779297 -0.020751953 1.0265503c-1.4248047 0.52423096 -3.6449585 0.97558594 -6.6605225 1.354187c-1.4801025 0.18933105 -2.586731 0.3859253 -3.3198242 0.5897827c-0.9959717 0.29119873 -1.8928223 0.72076416 -2.6904907 1.2886353c-0.7930908 0.5679321 -1.4362793 1.3226929 -1.9296875 2.2643433c-0.4887085 0.9367676 -0.73309326 1.9730225 -0.73309326 3.1088257c0 1.9366455 0.6501465 3.5286865 1.9503784 4.776123c1.300293 1.2425537 3.1608276 1.8638916 5.581543 1.8638916c1.4662476 0 2.8380127 -0.25482178 4.1152344 -0.76452637c1.2818604 -0.50964355 2.61438 -1.3833008 3.9976807 -2.6210327c0.11065674 1.092102 0.35961914 2.0458984 0.74694824 2.8613281l3.900879 0c-0.4703369 -0.8882446 -0.78619385 -1.8153076 -0.9475708 -2.78125c-0.15679932 -0.97076416 -0.23516846 -3.2835693 -0.23516846 -6.9384766l0 -5.2420654c0 -1.7473755 -0.06225586 -2.9559937 -0.18670654 -3.6257935c-0.22137451 -1.0775757 -0.6086426 -1.9682007 -1.1619873 -2.671997c-0.5532837 -0.7086792 -1.4178467 -1.2960205 -2.593628 -1.7619629c-1.1757812 -0.46594238 -2.7042847 -0.6989136 -4.5855713 -0.6989136z" fill-rule="evenodd"/><path stroke="#9b7c1d" stroke-width="2.0" stroke-linejoin="round" stroke-linecap="butt" d="m915.13855 719.2239c1.701416 0 3.1331177 0.74261475 4.295044 2.2279053c1.1619873 1.4852295 1.7429199 3.8150635 1.7429199 6.989441c0 2.8831177 -0.5717163 5.0285034 -1.715271 6.436096c-1.138855 1.402771 -2.524475 2.104126 -4.1567383 2.104126c-1.6184082 0 -3.022461 -0.73535156 -4.212036 -2.2060547c-1.1896362 -1.4707031 -1.7844238 -3.6912842 -1.7844238 -6.661804c0 -3.0724487 0.555603 -5.3222046 1.6668091 -6.7492065c1.1158447 -1.427002 2.5037231 -2.140503 4.1636963 -2.140503zm5.7267456 -11.554443l0 11.488892c-0.6501465 -0.94647217 -1.4939575 -1.7133789 -2.531372 -2.3006592c-1.0374756 -0.5921631 -2.2201538 -0.8882446 -3.5480957 -0.8882446c-1.8121338 0 -3.451294 0.50231934 -4.9176025 1.5070801c-1.4662476 1.0047607 -2.565918 2.4511719 -3.2990723 4.3392944c-0.7331543 1.8832397 -1.0997314 3.982544 -1.0997314 6.2977905c0 2.3734741 0.40344238 4.4752197 1.2103882 6.3050537c0.81152344 1.8250732 1.9526978 3.2471924 3.423584 4.2664795c1.4755249 1.0193481 3.0916138 1.5289917 4.8483887 1.5289917c2.7112427 0 4.765381 -1.1503906 6.1624756 -3.4510498l0 2.9268188l3.465149 0l0 -32.020447z" fill-rule="evenodd"/><path stroke="#9b7c1d" stroke-width="2.0" stroke-linejoin="round" stroke-linecap="butt" d="m939.5395 719.202c1.8951416 0 3.437439 0.75720215 4.627075 2.2715454c0.7746582 0.975647 1.2449341 2.4390259 1.4109497 4.390259l-12.30426 0c0.12451172 -2.0239868 0.77001953 -3.6403198 1.9365845 -4.848938c1.1712036 -1.2085571 2.614441 -1.8128662 4.329651 -1.8128662zm-0.04144287 -3.232605c-3.043213 0 -5.519287 1.0775146 -7.4282227 3.232605c-1.9089355 2.1550903 -2.8634033 5.183838 -2.8634033 9.086304c0 3.7713623 0.9429321 6.703064 2.8287964 8.795044c1.8905029 2.0871582 4.4472656 3.1307373 7.670288 3.1307373c2.559082 0 4.661621 -0.65527344 6.3077393 -1.9658203c1.6461182 -1.3104858 2.7734985 -3.1525269 3.38208 -5.526062l-3.859314 -0.50231934c-0.5671387 1.6599731 -1.3348389 2.8685913 -2.3031616 3.6257935c-0.9682617 0.7571411 -2.137146 1.1357422 -3.5065918 1.1357422c-1.8397827 0 -3.375183 -0.677063 -4.6063232 -2.031311c-1.2310791 -1.354187 -1.9158325 -3.30542 -2.0541382 -5.8536377l16.433289 0c0.0138549805 -0.46600342 0.020751953 -0.8154297 0.020751953 -1.0484619c0 -3.8295898 -0.9337158 -6.800171 -2.8011475 -8.91156c-1.8673706 -2.1113892 -4.274292 -3.1670532 -7.220642 -3.1670532z" fill-rule="evenodd"/><path fill="#5b0f00" d="m750.3438 500.24146l178.01575 0l0 154.5827l-178.01575 0z" fill-rule="evenodd"/><path fill="#7b3f33" d="m724.5801 474.4777l229.54327 0l-25.763794 25.763763l-178.01575 0z" fill-rule="evenodd"/><path fill="#480b00" d="m724.5801 680.58795l25.763733 -25.763794l178.01575 0l25.763794 25.763794z" fill-rule="evenodd"/><path fill="#9c6f66" d="m724.5801 474.4777l25.763733 25.763763l0 154.5827l-25.763733 25.763794z" fill-rule="evenodd"/><path fill="#360800" d="m954.12335 474.4777l0 206.11026l-25.763794 -25.763794l0 -154.5827z" fill-rule="evenodd"/><path fill="#000000" fill-opacity="0.0" d="m724.5801 474.4777l229.54327 0l0 206.11026l-229.54327 0zm25.763733 25.763763l178.01575 0l0 154.5827l-178.01575 0zm-25.763733 -25.763763l25.763733 25.763763m-25.763733 180.3465l25.763733 -25.763794m203.77954 -180.34647l-25.763794 25.763763m25.763794 180.3465l-25.763794 -25.763794" fill-rule="evenodd"/><path fill="#ffffff" d="m953.91956 395.17905l0 58.560547l-17.023315 0l0 -58.560547zm-25.534973 0l0 58.560547l-17.023254 0l0 -58.560547z" fill-rule="evenodd"/><path stroke="#9b7c1d" stroke-width="1.0" stroke-linejoin="round" stroke-linecap="butt" d="m953.91956 395.17905l0 58.560547l-17.023315 0l0 -58.560547zm-25.534973 0l0 58.560547l-17.023254 0l0 -58.560547z" fill-rule="evenodd"/><path fill="#f3f3f3" d="m774.6044 53.14173l141.39368 0l0 0c18.52295 0 33.538757 9.282303 33.538757 20.732597c0 11.450302 -15.015808 20.732597 -33.538757 20.732597l-141.39368 0l0 0c-18.52295 0 -33.538757 -9.282295 -33.538757 -20.732597c0 -11.4502945 15.015808 -20.732597 33.538757 -20.732597z" fill-rule="evenodd"/><path stroke="#9b7c1d" stroke-width="1.0" stroke-linejoin="round" stroke-linecap="butt" d="m774.6044 53.14173l141.39368 0l0 0c18.52295 0 33.538757 9.282303 33.538757 20.732597c0 11.450302 -15.015808 20.732597 -33.538757 20.732597l-141.39368 0l0 0c-18.52295 0 -33.538757 -9.282295 -33.538757 -20.732597c0 -11.4502945 15.015808 -20.732597 33.538757 -20.732597z" fill-rule="evenodd"/><path fill="#f1c232" d="m744.0801 331.73096l40.48871 -28.397614l121.466125 0l40.48871 28.397614l-40.48871 28.397644l-121.466125 0z" fill-rule="evenodd"/><path stroke="#9b7c1d" stroke-width="1.0" stroke-linejoin="round" stroke-linecap="butt" d="m744.0801 331.73096l40.48871 -28.397614l121.466125 0l40.48871 28.397614l-40.48871 28.397644l-121.466125 0z" fill-rule="evenodd"/><path fill="#f3f3f3" d="m774.6044 101.220474l141.39368 0l0 0c18.52295 0 33.538757 9.282295 33.538757 20.732597c0 11.4502945 -15.015808 20.732597 -33.538757 20.732597l-141.39368 0l0 0c-18.52295 0 -33.538757 -9.282303 -33.538757 -20.732597c0 -11.450302 15.015808 -20.732597 33.538757 -20.732597z" fill-rule="evenodd"/><path stroke="#9b7c1d" stroke-width="1.0" stroke-linejoin="round" stroke-linecap="butt" d="m774.6044 101.220474l141.39368 0l0 0c18.52295 0 33.538757 9.282295 33.538757 20.732597c0 11.4502945 -15.015808 20.732597 -33.538757 20.732597l-141.39368 0l0 0c-18.52295 0 -33.538757 -9.282303 -33.538757 -20.732597c0 -11.450302 15.015808 -20.732597 33.538757 -20.732597z" fill-rule="evenodd"/><path fill="#f3f3f3" d="m774.6044 149.29921l141.39368 0l0 0c18.52295 0 33.538757 9.282303 33.538757 20.732605c0 11.450287 -15.015808 20.73259 -33.538757 20.73259l-141.39368 0l0 0c-18.52295 0 -33.538757 -9.282303 -33.538757 -20.73259c0 -11.450302 15.015808 -20.732605 33.538757 -20.732605z" fill-rule="evenodd"/><path stroke="#9b7c1d" stroke-width="1.0" stroke-linejoin="round" stroke-linecap="butt" d="m774.6044 149.29921l141.39368 0l0 0c18.52295 0 33.538757 9.282303 33.538757 20.732605c0 11.450287 -15.015808 20.73259 -33.538757 20.73259l-141.39368 0l0 0c-18.52295 0 -33.538757 -9.282303 -33.538757 -20.73259c0 -11.450302 15.015808 -20.732605 33.538757 -20.732605z" fill-rule="evenodd"/><path fill="#f3f3f3" d="m774.6044 198.26903l141.39368 0l0 0c18.52295 0 33.538757 9.282303 33.538757 20.732605c0 11.450287 -15.015808 20.73259 -33.538757 20.73259l-141.39368 0l0 0c-18.52295 0 -33.538757 -9.282303 -33.538757 -20.73259c0 -11.450302 15.015808 -20.732605 33.538757 -20.732605z" fill-rule="evenodd"/><path stroke="#9b7c1d" stroke-width="1.0" stroke-linejoin="round" stroke-linecap="butt" d="m774.6044 198.26903l141.39368 0l0 0c18.52295 0 33.538757 9.282303 33.538757 20.732605c0 11.450287 -15.015808 20.73259 -33.538757 20.73259l-141.39368 0l0 0c-18.52295 0 -33.538757 -9.282303 -33.538757 -20.73259c0 -11.450302 15.015808 -20.732605 33.538757 -20.732605z" fill-rule="evenodd"/><path fill="#f3f3f3" d="m774.6057 249.021l141.39362 0l0 0c18.52295 0 33.538757 9.282288 33.538757 20.732605c0 11.450287 -15.015808 20.732605 -33.538757 20.732605l-141.39362 0l0 0c-18.52295 0 -33.538757 -9.282318 -33.538757 -20.732605c0 -11.450317 15.015808 -20.732605 33.538757 -20.732605z" fill-rule="evenodd"/><path stroke="#9b7c1d" stroke-width="1.0" stroke-linejoin="round" stroke-linecap="butt" d="m774.6057 249.021l141.39362 0l0 0c18.52295 0 33.538757 9.282288 33.538757 20.732605c0 11.450287 -15.015808 20.732605 -33.538757 20.732605l-141.39362 0l0 0c-18.52295 0 -33.538757 -9.282318 -33.538757 -20.732605c0 -11.450317 15.015808 -20.732605 33.538757 -20.732605z" fill-rule="evenodd"/><path fill="#f3f3f3" d="m749.6204 405.60785c2.6412354 0 4.845764 1.2472534 6.6135254 3.7417297c1.7747803 2.4945068 2.6621704 7.5358887 2.6621704 15.1241455c0 7.546356 -0.88739014 12.5772705 -2.6621704 15.092712c-1.7677612 2.515442 -3.951294 3.7731628 -6.550598 3.7731628c-2.5993042 0 -4.786316 -1.2507324 -6.561096 -3.7521973c-1.7678223 -2.508484 -2.6517334 -7.546356 -2.6517334 -15.113678c0 -7.567322 0.97473145 -12.755432 2.9241943 -15.564331c1.5512085 -2.2010193 3.6264648 -3.3015442 6.225708 -3.3015442zm0.062927246 -4.685028c-3.3539429 0 -6.1383667 0.9013672 -8.353394 2.7041016c-2.2079468 1.8027344 -3.8744507 4.3671265 -4.9993896 7.6930847c-1.117981 3.3190002 -1.677002 7.703583 -1.677002 13.153717c0 8.657349 1.5197754 14.904053 4.559265 18.740112c2.536377 3.1862488 6.0265503 4.779358 10.47052 4.779358c3.374878 0 6.166321 -0.9048767 8.374329 -2.7145996c2.2149658 -1.8167114 3.8779297 -4.384552 4.9889526 -7.7035522c1.1109619 -3.3259888 1.6664429 -7.6930847 1.6664429 -13.101318c0 -4.5697327 -0.3458252 -8.1996765 -1.0375977 -10.889801c-0.69177246 -2.697113 -1.6455078 -4.9819946 -2.8613281 -6.8546143c-1.2157593 -1.8795776 -2.7564697 -3.3154907 -4.6221313 -4.3077087c-1.8656006 -0.999176 -4.0351562 -1.4987793 -6.508667 -1.4987793z" fill-rule="evenodd"/><path fill="#f3f3f3" d="m785.434 405.60785c2.6412354 0 4.845703 1.2472534 6.6135254 3.7417297c1.7747803 2.4945068 2.6621704 7.5358887 2.6621704 15.1241455c0 7.546356 -0.88739014 12.5772705 -2.6621704 15.092712c-1.7678223 2.515442 -3.951355 3.7731628 -6.550598 3.7731628c-2.5993042 0 -4.786377 -1.2507324 -6.561157 -3.7521973c-1.7677612 -2.508484 -2.6516724 -7.546356 -2.6516724 -15.113678c0 -7.567322 0.97473145 -12.755432 2.9241943 -15.564331c1.5512085 -2.2010193 3.6264038 -3.3015442 6.225708 -3.3015442zm0.062927246 -4.685028c-3.3539429 0 -6.1384277 0.9013672 -8.353394 2.7041016c-2.2080078 1.8027344 -3.8744507 4.3671265 -4.9994507 7.6930847c-1.117981 3.3190002 -1.6769409 7.703583 -1.6769409 13.153717c0 8.657349 1.5197754 14.904053 4.559265 18.740112c2.536377 3.1862488 6.0265503 4.779358 10.47052 4.779358c3.374878 0 6.166321 -0.9048767 8.374268 -2.7145996c2.2150269 -1.8167114 3.8779907 -4.384552 4.9890137 -7.7035522c1.1109619 -3.3259888 1.6664429 -7.6930847 1.6664429 -13.101318c0 -4.5697327 -0.34588623 -8.1996765 -1.0375977 -10.889801c-0.69177246 -2.697113 -1.6455078 -4.9819946 -2.8613281 -6.8546143c-1.2158203 -1.8795776 -2.7565308 -3.3154907 -4.6221313 -4.3077087c-1.8656006 -0.999176 -4.0351562 -1.4987793 -6.508667 -1.4987793z" fill-rule="evenodd"/><path fill="#f3f3f3" d="m809.42505 413.8145l0 6.4458313l6.445801 0l0 -6.4458313zm0 26.946747l0 6.445862l6.445801 0l0 -6.445862z" fill-rule="evenodd"/><path fill="#f3f3f3" d="m839.1387 405.60785c2.6412354 0 4.845764 1.2472534 6.6135254 3.7417297c1.7747803 2.4945068 2.6621704 7.5358887 2.6621704 15.1241455c0 7.546356 -0.88739014 12.5772705 -2.6621704 15.092712c-1.7677612 2.515442 -3.951355 3.7731628 -6.550598 3.7731628c-2.5993042 0 -4.786377 -1.2507324 -6.561157 -3.7521973c-1.7677612 -2.508484 -2.6516724 -7.546356 -2.6516724 -15.113678c0 -7.567322 0.97473145 -12.755432 2.9241943 -15.564331c1.5512085 -2.2010193 3.6264648 -3.3015442 6.225708 -3.3015442zm0.062927246 -4.685028c-3.3539429 0 -6.1383667 0.9013672 -8.353394 2.7041016c-2.2080078 1.8027344 -3.8744507 4.3671265 -4.9994507 7.6930847c-1.1179199 3.3190002 -1.6769409 7.703583 -1.6769409 13.153717c0 8.657349 1.5197754 14.904053 4.559265 18.740112c2.536377 3.1862488 6.0265503 4.779358 10.47052 4.779358c3.374878 0 6.166321 -0.9048767 8.374329 -2.7145996c2.2149658 -1.8167114 3.8779297 -4.384552 4.9889526 -7.7035522c1.1109619 -3.3259888 1.6664429 -7.6930847 1.6664429 -13.101318c0 -4.5697327 -0.34588623 -8.1996765 -1.0375977 -10.889801c-0.69177246 -2.697113 -1.6455078 -4.9819946 -2.8613281 -6.8546143c-1.2158203 -1.8795776 -2.7564697 -3.3154907 -4.6221313 -4.3077087c-1.8656006 -0.999176 -4.0351562 -1.4987793 -6.508667 -1.4987793z" fill-rule="evenodd"/><path fill="#f3f3f3" d="m874.9523 405.60785c2.6412354 0 4.845703 1.2472534 6.6135254 3.7417297c1.7747803 2.4945068 2.6621704 7.5358887 2.6621704 15.1241455c0 7.546356 -0.88739014 12.5772705 -2.6621704 15.092712c-1.7678223 2.515442 -3.951355 3.7731628 -6.550659 3.7731628c-2.5992432 0 -4.786316 -1.2507324 -6.561096 -3.7521973c-1.7677612 -2.508484 -2.6516724 -7.546356 -2.6516724 -15.113678c0 -7.567322 0.97473145 -12.755432 2.9241943 -15.564331c1.5512085 -2.2010193 3.6264038 -3.3015442 6.225708 -3.3015442zm0.06286621 -4.685028c-3.3538818 0 -6.1383667 0.9013672 -8.3533325 2.7041016c-2.2080078 1.8027344 -3.8744507 4.3671265 -4.9994507 7.6930847c-1.117981 3.3190002 -1.6769409 7.703583 -1.6769409 13.153717c0 8.657349 1.5197144 14.904053 4.559204 18.740112c2.536438 3.1862488 6.0266113 4.779358 10.47052 4.779358c3.374878 0 6.166321 -0.9048767 8.374329 -2.7145996c2.2150269 -1.8167114 3.8779907 -4.384552 4.9889526 -7.7035522c1.111023 -3.3259888 1.6665039 -7.6930847 1.6665039 -13.101318c0 -4.5697327 -0.34588623 -8.1996765 -1.0375977 -10.889801c-0.69177246 -2.697113 -1.6455688 -4.9819946 -2.8613281 -6.8546143c-1.2158203 -1.8795776 -2.7565308 -3.3154907 -4.6221313 -4.3077087c-1.8656006 -0.999176 -4.0352173 -1.4987793 -6.508728 -1.4987793z" fill-rule="evenodd"/><path stroke="#9b7c1d" stroke-width="1.0" stroke-linejoin="round" stroke-linecap="butt" d="m749.6204 405.60785c2.6412354 0 4.845764 1.2472534 6.6135254 3.7417297c1.7747803 2.4945068 2.6621704 7.5358887 2.6621704 15.1241455c0 7.546356 -0.88739014 12.5772705 -2.6621704 15.092712c-1.7677612 2.515442 -3.951294 3.7731628 -6.550598 3.7731628c-2.5993042 0 -4.786316 -1.2507324 -6.561096 -3.7521973c-1.7678223 -2.508484 -2.6517334 -7.546356 -2.6517334 -15.113678c0 -7.567322 0.97473145 -12.755432 2.9241943 -15.564331c1.5512085 -2.2010193 3.6264648 -3.3015442 6.225708 -3.3015442zm0.062927246 -4.685028c-3.3539429 0 -6.1383667 0.9013672 -8.353394 2.7041016c-2.2079468 1.8027344 -3.8744507 4.3671265 -4.9993896 7.6930847c-1.117981 3.3190002 -1.677002 7.703583 -1.677002 13.153717c0 8.657349 1.5197754 14.904053 4.559265 18.740112c2.536377 3.1862488 6.0265503 4.779358 10.47052 4.779358c3.374878 0 6.166321 -0.9048767 8.374329 -2.7145996c2.2149658 -1.8167114 3.8779297 -4.384552 4.9889526 -7.7035522c1.1109619 -3.3259888 1.6664429 -7.6930847 1.6664429 -13.101318c0 -4.5697327 -0.3458252 -8.1996765 -1.0375977 -10.889801c-0.69177246 -2.697113 -1.6455078 -4.9819946 -2.8613281 -6.8546143c-1.2157593 -1.8795776 -2.7564697 -3.3154907 -4.6221313 -4.3077087c-1.8656006 -0.999176 -4.0351562 -1.4987793 -6.508667 -1.4987793z" fill-rule="evenodd"/><path stroke="#9b7c1d" stroke-width="1.0" stroke-linejoin="round" stroke-linecap="butt" d="m785.434 405.60785c2.6412354 0 4.845703 1.2472534 6.6135254 3.7417297c1.7747803 2.4945068 2.6621704 7.5358887 2.6621704 15.1241455c0 7.546356 -0.88739014 12.5772705 -2.6621704 15.092712c-1.7678223 2.515442 -3.951355 3.7731628 -6.550598 3.7731628c-2.5993042 0 -4.786377 -1.2507324 -6.561157 -3.7521973c-1.7677612 -2.508484 -2.6516724 -7.546356 -2.6516724 -15.113678c0 -7.567322 0.97473145 -12.755432 2.9241943 -15.564331c1.5512085 -2.2010193 3.6264038 -3.3015442 6.225708 -3.3015442zm0.062927246 -4.685028c-3.3539429 0 -6.1384277 0.9013672 -8.353394 2.7041016c-2.2080078 1.8027344 -3.8744507 4.3671265 -4.9994507 7.6930847c-1.117981 3.3190002 -1.6769409 7.703583 -1.6769409 13.153717c0 8.657349 1.5197754 14.904053 4.559265 18.740112c2.536377 3.1862488 6.0265503 4.779358 10.47052 4.779358c3.374878 0 6.166321 -0.9048767 8.374268 -2.7145996c2.2150269 -1.8167114 3.8779907 -4.384552 4.9890137 -7.7035522c1.1109619 -3.3259888 1.6664429 -7.6930847 1.6664429 -13.101318c0 -4.5697327 -0.34588623 -8.1996765 -1.0375977 -10.889801c-0.69177246 -2.697113 -1.6455078 -4.9819946 -2.8613281 -6.8546143c-1.2158203 -1.8795776 -2.7565308 -3.3154907 -4.6221313 -4.3077087c-1.8656006 -0.999176 -4.0351562 -1.4987793 -6.508667 -1.4987793z" fill-rule="evenodd"/><path stroke="#9b7c1d" stroke-width="1.0" stroke-linejoin="round" stroke-linecap="butt" d="m809.42505 413.8145l0 6.4458313l6.445801 0l0 -6.4458313zm0 26.946747l0 6.445862l6.445801 0l0 -6.445862z" fill-rule="evenodd"/><path stroke="#9b7c1d" stroke-width="1.0" stroke-linejoin="round" stroke-linecap="butt" d="m839.1387 405.60785c2.6412354 0 4.845764 1.2472534 6.6135254 3.7417297c1.7747803 2.4945068 2.6621704 7.5358887 2.6621704 15.1241455c0 7.546356 -0.88739014 12.5772705 -2.6621704 15.092712c-1.7677612 2.515442 -3.951355 3.7731628 -6.550598 3.7731628c-2.5993042 0 -4.786377 -1.2507324 -6.561157 -3.7521973c-1.7677612 -2.508484 -2.6516724 -7.546356 -2.6516724 -15.113678c0 -7.567322 0.97473145 -12.755432 2.9241943 -15.564331c1.5512085 -2.2010193 3.6264648 -3.3015442 6.225708 -3.3015442zm0.062927246 -4.685028c-3.3539429 0 -6.1383667 0.9013672 -8.353394 2.7041016c-2.2080078 1.8027344 -3.8744507 4.3671265 -4.9994507 7.6930847c-1.1179199 3.3190002 -1.6769409 7.703583 -1.6769409 13.153717c0 8.657349 1.5197754 14.904053 4.559265 18.740112c2.536377 3.1862488 6.0265503 4.779358 10.47052 4.779358c3.374878 0 6.166321 -0.9048767 8.374329 -2.7145996c2.2149658 -1.8167114 3.8779297 -4.384552 4.9889526 -7.7035522c1.1109619 -3.3259888 1.6664429 -7.6930847 1.6664429 -13.101318c0 -4.5697327 -0.34588623 -8.1996765 -1.0375977 -10.889801c-0.69177246 -2.697113 -1.6455078 -4.9819946 -2.8613281 -6.8546143c-1.2158203 -1.8795776 -2.7564697 -3.3154907 -4.6221313 -4.3077087c-1.8656006 -0.999176 -4.0351562 -1.4987793 -6.508667 -1.4987793z" fill-rule="evenodd"/><path stroke="#9b7c1d" stroke-width="1.0" stroke-linejoin="round" stroke-linecap="butt" d="m874.9523 405.60785c2.6412354 0 4.845703 1.2472534 6.6135254 3.7417297c1.7747803 2.4945068 2.6621704 7.5358887 2.6621704 15.1241455c0 7.546356 -0.88739014 12.5772705 -2.6621704 15.092712c-1.7678223 2.515442 -3.951355 3.7731628 -6.550659 3.7731628c-2.5992432 0 -4.786316 -1.2507324 -6.561096 -3.7521973c-1.7677612 -2.508484 -2.6516724 -7.546356 -2.6516724 -15.113678c0 -7.567322 0.97473145 -12.755432 2.9241943 -15.564331c1.5512085 -2.2010193 3.6264038 -3.3015442 6.225708 -3.3015442zm0.06286621 -4.685028c-3.3538818 0 -6.1383667 0.9013672 -8.3533325 2.7041016c-2.2080078 1.8027344 -3.8744507 4.3671265 -4.9994507 7.6930847c-1.117981 3.3190002 -1.6769409 7.703583 -1.6769409 13.153717c0 8.657349 1.5197144 14.904053 4.559204 18.740112c2.536438 3.1862488 6.0266113 4.779358 10.47052 4.779358c3.374878 0 6.166321 -0.9048767 8.374329 -2.7145996c2.2150269 -1.8167114 3.8779907 -4.384552 4.9889526 -7.7035522c1.111023 -3.3259888 1.6665039 -7.6930847 1.6665039 -13.101318c0 -4.5697327 -0.34588623 -8.1996765 -1.0375977 -10.889801c-0.69177246 -2.697113 -1.6455688 -4.9819946 -2.8613281 -6.8546143c-1.2158203 -1.8795776 -2.7565308 -3.3154907 -4.6221313 -4.3077087c-1.8656006 -0.999176 -4.0352173 -1.4987793 -6.508728 -1.4987793z" fill-rule="evenodd"/><path fill="#000000" fill-opacity="0.0" d="m790.53546 58.627296l120.0 0l0 22.015747l-120.0 0z" fill-rule="evenodd"/><path fill="#000000" d="m810.5042 80.859795l1.765625 0.453125q-0.5625 2.171875 -2.0 3.328125q-1.4375 1.140625 -3.53125 1.140625q-2.15625 0 -3.515625 -0.875q-1.34375 -0.890625 -2.0625 -2.546875q-0.703125 -1.671875 -0.703125 -3.59375q0 -2.078125 0.796875 -3.625q0.796875 -1.5625 2.265625 -2.359375q1.484375 -0.8125 3.25 -0.8125q2.0 0 3.359375 1.015625q1.375 1.015625 1.90625 2.875l-1.734375 0.40625q-0.46875 -1.453125 -1.359375 -2.109375q-0.875 -0.671875 -2.203125 -0.671875q-1.546875 0 -2.578125 0.734375q-1.03125 0.734375 -1.453125 1.984375q-0.421875 1.234375 -0.421875 2.5625q0 1.703125 0.5 2.96875q0.5 1.265625 1.546875 1.90625q1.046875 0.625 2.265625 0.625q1.484375 0 2.515625 -0.859375q1.03125 -0.859375 1.390625 -2.546875zm10.051025 3.5q-0.921875 0.765625 -1.765625 1.09375q-0.828125 0.3125 -1.796875 0.3125q-1.59375 0 -2.453125 -0.78125q-0.859375 -0.78125 -0.859375 -1.984375q0 -0.71875 0.328125 -1.296875q0.328125 -0.59375 0.84375 -0.9375q0.53125 -0.359375 1.1875 -0.546875q0.46875 -0.125 1.453125 -0.25q1.984375 -0.234375 2.921875 -0.5625q0.015625 -0.34375 0.015625 -0.421875q0 -1.0 -0.46875 -1.421875q-0.625 -0.546875 -1.875 -0.546875q-1.15625 0 -1.703125 0.40625q-0.546875 0.40625 -0.8125 1.421875l-1.609375 -0.21875q0.21875 -1.015625 0.71875 -1.640625q0.5 -0.640625 1.453125 -0.984375q0.953125 -0.34375 2.1875 -0.34375q1.25 0 2.015625 0.296875q0.78125 0.28125 1.140625 0.734375q0.375 0.4375 0.515625 1.109375q0.078125 0.421875 0.078125 1.515625l0 2.1875q0 2.28125 0.109375 2.890625q0.109375 0.59375 0.40625 1.15625l-1.703125 0q-0.265625 -0.515625 -0.328125 -1.1875zm-0.140625 -3.671875q-0.890625 0.375 -2.671875 0.625q-1.015625 0.140625 -1.4375 0.328125q-0.421875 0.1875 -0.65625 0.53125q-0.21875 0.34375 -0.21875 0.78125q0 0.65625 0.5 1.09375q0.5 0.4375 1.453125 0.4375q0.9375 0 1.671875 -0.40625q0.75 -0.421875 1.09375 -1.140625q0.265625 -0.5625 0.265625 -1.640625l0 -0.609375zm4.2038574 4.859375l0 -9.671875l1.46875 0l0 1.359375q0.453125 -0.71875 1.203125 -1.140625q0.765625 -0.4375 1.71875 -0.4375q1.078125 0 1.765625 0.453125q0.6875 0.4375 0.96875 1.234375q1.15625 -1.6875 2.984375 -1.6875q1.453125 0 2.21875 0.796875q0.78125 0.796875 0.78125 2.453125l0 6.640625l-1.640625 0l0 -6.09375q0 -0.984375 -0.15625 -1.40625q-0.15625 -0.4375 -0.578125 -0.703125q-0.421875 -0.265625 -0.984375 -0.265625q-1.015625 0 -1.6875 0.6875q-0.671875 0.671875 -0.671875 2.15625l0 5.625l-1.640625 0l0 -6.28125q0 -1.09375 -0.40625 -1.640625q-0.40625 -0.546875 -1.3125 -0.546875q-0.6875 0 -1.28125 0.359375q-0.59375 0.359375 -0.859375 1.0625q-0.25 0.703125 -0.25 2.03125l0 5.015625l-1.640625 0zm26.442871 0l-1.640625 0l0 -10.453125q-0.59375 0.5625 -1.5625 1.140625q-0.953125 0.5625 -1.71875 0.84375l0 -1.59375q1.375 -0.640625 2.40625 -1.5625q1.03125 -0.921875 1.453125 -1.78125l1.0625 0l0 13.40625z" fill-rule="nonzero"/><path fill="#000000" fill-opacity="0.0" d="m790.53546 110.944885l120.0 0l0 22.015747l-120.0 0z" fill-rule="evenodd"/><path fill="#000000" d="m810.5042 133.17738l1.765625 0.453125q-0.5625 2.171875 -2.0 3.328125q-1.4375 1.140625 -3.53125 1.140625q-2.15625 0 -3.515625 -0.875q-1.34375 -0.890625 -2.0625 -2.546875q-0.703125 -1.671875 -0.703125 -3.59375q0 -2.078125 0.796875 -3.625q0.796875 -1.5625 2.265625 -2.359375q1.484375 -0.8125 3.25 -0.8125q2.0 0 3.359375 1.015625q1.375 1.015625 1.90625 2.875l-1.734375 0.40625q-0.46875 -1.453125 -1.359375 -2.109375q-0.875 -0.671875 -2.203125 -0.671875q-1.546875 0 -2.578125 0.734375q-1.03125 0.734375 -1.453125 1.984375q-0.421875 1.234375 -0.421875 2.5625q0 1.703125 0.5 2.96875q0.5 1.265625 1.546875 1.90625q1.046875 0.625 2.265625 0.625q1.484375 0 2.515625 -0.859375q1.03125 -0.859375 1.390625 -2.546875zm10.051025 3.5q-0.921875 0.765625 -1.765625 1.09375q-0.828125 0.3125 -1.796875 0.3125q-1.59375 0 -2.453125 -0.78125q-0.859375 -0.78125 -0.859375 -1.984375q0 -0.71875 0.328125 -1.296875q0.328125 -0.59375 0.84375 -0.9375q0.53125 -0.359375 1.1875 -0.546875q0.46875 -0.125 1.453125 -0.25q1.984375 -0.234375 2.921875 -0.5625q0.015625 -0.34375 0.015625 -0.421875q0 -1.0 -0.46875 -1.421875q-0.625 -0.546875 -1.875 -0.546875q-1.15625 0 -1.703125 0.40625q-0.546875 0.40625 -0.8125 1.421875l-1.609375 -0.21875q0.21875 -1.015625 0.71875 -1.640625q0.5 -0.640625 1.453125 -0.984375q0.953125 -0.34375 2.1875 -0.34375q1.25 0 2.015625 0.296875q0.78125 0.28125 1.140625 0.734375q0.375 0.4375 0.515625 1.109375q0.078125 0.421875 0.078125 1.515625l0 2.1875q0 2.28125 0.109375 2.890625q0.109375 0.59375 0.40625 1.15625l-1.703125 0q-0.265625 -0.515625 -0.328125 -1.1875zm-0.140625 -3.671875q-0.890625 0.375 -2.671875 0.625q-1.015625 0.140625 -1.4375 0.328125q-0.421875 0.1875 -0.65625 0.53125q-0.21875 0.34375 -0.21875 0.78125q0 0.65625 0.5 1.09375q0.5 0.4375 1.453125 0.4375q0.9375 0 1.671875 -0.40625q0.75 -0.421875 1.09375 -1.140625q0.265625 -0.5625 0.265625 -1.640625l0 -0.609375zm4.2038574 4.859375l0 -9.671875l1.46875 0l0 1.359375q0.453125 -0.71875 1.203125 -1.140625q0.765625 -0.4375 1.71875 -0.4375q1.078125 0 1.765625 0.453125q0.6875 0.4375 0.96875 1.234375q1.15625 -1.6875 2.984375 -1.6875q1.453125 0 2.21875 0.796875q0.78125 0.796875 0.78125 2.453125l0 6.640625l-1.640625 0l0 -6.09375q0 -0.984375 -0.15625 -1.40625q-0.15625 -0.4375 -0.578125 -0.703125q-0.421875 -0.265625 -0.984375 -0.265625q-1.015625 0 -1.6875 0.6875q-0.671875 0.671875 -0.671875 2.15625l0 5.625l-1.640625 0l0 -6.28125q0 -1.09375 -0.40625 -1.640625q-0.40625 -0.546875 -1.3125 -0.546875q-0.6875 0 -1.28125 0.359375q-0.59375 0.359375 -0.859375 1.0625q-0.25 0.703125 -0.25 2.03125l0 5.015625l-1.640625 0zm26.442871 0l-1.640625 0l0 -10.453125q-0.59375 0.5625 -1.5625 1.140625q-0.953125 0.5625 -1.71875 0.84375l0 -1.59375q1.375 -0.640625 2.40625 -1.5625q1.03125 -0.921875 1.453125 -1.78125l1.0625 0l0 13.40625z" fill-rule="nonzero"/><path fill="#000000" fill-opacity="0.0" d="m790.53546 159.46982l120.0 0l0 22.015747l-120.0 0z" fill-rule="evenodd"/><path fill="#000000" d="m810.5042 181.70232l1.765625 0.453125q-0.5625 2.171875 -2.0 3.328125q-1.4375 1.140625 -3.53125 1.140625q-2.15625 0 -3.515625 -0.875q-1.34375 -0.890625 -2.0625 -2.546875q-0.703125 -1.671875 -0.703125 -3.59375q0 -2.078125 0.796875 -3.625q0.796875 -1.5625 2.265625 -2.359375q1.484375 -0.8125 3.25 -0.8125q2.0 0 3.359375 1.015625q1.375 1.015625 1.90625 2.875l-1.734375 0.40625q-0.46875 -1.453125 -1.359375 -2.109375q-0.875 -0.671875 -2.203125 -0.671875q-1.546875 0 -2.578125 0.734375q-1.03125 0.734375 -1.453125 1.984375q-0.421875 1.234375 -0.421875 2.5625q0 1.703125 0.5 2.96875q0.5 1.265625 1.546875 1.90625q1.046875 0.625 2.265625 0.625q1.484375 0 2.515625 -0.859375q1.03125 -0.859375 1.390625 -2.546875zm10.051025 3.5q-0.921875 0.765625 -1.765625 1.09375q-0.828125 0.3125 -1.796875 0.3125q-1.59375 0 -2.453125 -0.78125q-0.859375 -0.78125 -0.859375 -1.984375q0 -0.71875 0.328125 -1.296875q0.328125 -0.59375 0.84375 -0.9375q0.53125 -0.359375 1.1875 -0.546875q0.46875 -0.125 1.453125 -0.25q1.984375 -0.234375 2.921875 -0.5625q0.015625 -0.34375 0.015625 -0.421875q0 -1.0 -0.46875 -1.421875q-0.625 -0.546875 -1.875 -0.546875q-1.15625 0 -1.703125 0.40625q-0.546875 0.40625 -0.8125 1.421875l-1.609375 -0.21875q0.21875 -1.015625 0.71875 -1.640625q0.5 -0.640625 1.453125 -0.984375q0.953125 -0.34375 2.1875 -0.34375q1.25 0 2.015625 0.296875q0.78125 0.28125 1.140625 0.734375q0.375 0.4375 0.515625 1.109375q0.078125 0.421875 0.078125 1.515625l0 2.1875q0 2.28125 0.109375 2.890625q0.109375 0.59375 0.40625 1.15625l-1.703125 0q-0.265625 -0.515625 -0.328125 -1.1875zm-0.140625 -3.671875q-0.890625 0.375 -2.671875 0.625q-1.015625 0.140625 -1.4375 0.328125q-0.421875 0.1875 -0.65625 0.53125q-0.21875 0.34375 -0.21875 0.78125q0 0.65625 0.5 1.09375q0.5 0.4375 1.453125 0.4375q0.9375 0 1.671875 -0.40625q0.75 -0.421875 1.09375 -1.140625q0.265625 -0.5625 0.265625 -1.640625l0 -0.609375zm4.2038574 4.859375l0 -9.671875l1.46875 0l0 1.359375q0.453125 -0.71875 1.203125 -1.140625q0.765625 -0.4375 1.71875 -0.4375q1.078125 0 1.765625 0.453125q0.6875 0.4375 0.96875 1.234375q1.15625 -1.6875 2.984375 -1.6875q1.453125 0 2.21875 0.796875q0.78125 0.796875 0.78125 2.453125l0 6.640625l-1.640625 0l0 -6.09375q0 -0.984375 -0.15625 -1.40625q-0.15625 -0.4375 -0.578125 -0.703125q-0.421875 -0.265625 -0.984375 -0.265625q-1.015625 0 -1.6875 0.6875q-0.671875 0.671875 -0.671875 2.15625l0 5.625l-1.640625 0l0 -6.28125q0 -1.09375 -0.40625 -1.640625q-0.40625 -0.546875 -1.3125 -0.546875q-0.6875 0 -1.28125 0.359375q-0.59375 0.359375 -0.859375 1.0625q-0.25 0.703125 -0.25 2.03125l0 5.015625l-1.640625 0zm26.442871 0l-1.640625 0l0 -10.453125q-0.59375 0.5625 -1.5625 1.140625q-0.953125 0.5625 -1.71875 0.84375l0 -1.59375q1.375 -0.640625 2.40625 -1.5625q1.03125 -0.921875 1.453125 -1.78125l1.0625 0l0 13.40625z" fill-rule="nonzero"/><path fill="#000000" fill-opacity="0.0" d="m790.53546 208.88452l120.0 0l0 22.015747l-120.0 0z" fill-rule="evenodd"/><path fill="#000000" d="m810.5042 231.11702l1.765625 0.453125q-0.5625 2.171875 -2.0 3.328125q-1.4375 1.140625 -3.53125 1.140625q-2.15625 0 -3.515625 -0.875q-1.34375 -0.890625 -2.0625 -2.546875q-0.703125 -1.671875 -0.703125 -3.59375q0 -2.078125 0.796875 -3.625q0.796875 -1.5625 2.265625 -2.359375q1.484375 -0.8125 3.25 -0.8125q2.0 0 3.359375 1.015625q1.375 1.015625 1.90625 2.875l-1.734375 0.40625q-0.46875 -1.453125 -1.359375 -2.109375q-0.875 -0.671875 -2.203125 -0.671875q-1.546875 0 -2.578125 0.734375q-1.03125 0.734375 -1.453125 1.984375q-0.421875 1.234375 -0.421875 2.5625q0 1.703125 0.5 2.96875q0.5 1.265625 1.546875 1.90625q1.046875 0.625 2.265625 0.625q1.484375 0 2.515625 -0.859375q1.03125 -0.859375 1.390625 -2.546875zm10.051025 3.5q-0.921875 0.765625 -1.765625 1.09375q-0.828125 0.3125 -1.796875 0.3125q-1.59375 0 -2.453125 -0.78125q-0.859375 -0.78125 -0.859375 -1.984375q0 -0.71875 0.328125 -1.296875q0.328125 -0.59375 0.84375 -0.9375q0.53125 -0.359375 1.1875 -0.546875q0.46875 -0.125 1.453125 -0.25q1.984375 -0.234375 2.921875 -0.5625q0.015625 -0.34375 0.015625 -0.421875q0 -1.0 -0.46875 -1.421875q-0.625 -0.546875 -1.875 -0.546875q-1.15625 0 -1.703125 0.40625q-0.546875 0.40625 -0.8125 1.421875l-1.609375 -0.21875q0.21875 -1.015625 0.71875 -1.640625q0.5 -0.640625 1.453125 -0.984375q0.953125 -0.34375 2.1875 -0.34375q1.25 0 2.015625 0.296875q0.78125 0.28125 1.140625 0.734375q0.375 0.4375 0.515625 1.109375q0.078125 0.421875 0.078125 1.515625l0 2.1875q0 2.28125 0.109375 2.890625q0.109375 0.59375 0.40625 1.15625l-1.703125 0q-0.265625 -0.515625 -0.328125 -1.1875zm-0.140625 -3.671875q-0.890625 0.375 -2.671875 0.625q-1.015625 0.140625 -1.4375 0.328125q-0.421875 0.1875 -0.65625 0.53125q-0.21875 0.34375 -0.21875 0.78125q0 0.65625 0.5 1.09375q0.5 0.4375 1.453125 0.4375q0.9375 0 1.671875 -0.40625q0.75 -0.421875 1.09375 -1.140625q0.265625 -0.5625 0.265625 -1.640625l0 -0.609375zm4.2038574 4.859375l0 -9.671875l1.46875 0l0 1.359375q0.453125 -0.71875 1.203125 -1.140625q0.765625 -0.4375 1.71875 -0.4375q1.078125 0 1.765625 0.453125q0.6875 0.4375 0.96875 1.234375q1.15625 -1.6875 2.984375 -1.6875q1.453125 0 2.21875 0.796875q0.78125 0.796875 0.78125 2.453125l0 6.640625l-1.640625 0l0 -6.09375q0 -0.984375 -0.15625 -1.40625q-0.15625 -0.4375 -0.578125 -0.703125q-0.421875 -0.265625 -0.984375 -0.265625q-1.015625 0 -1.6875 0.6875q-0.671875 0.671875 -0.671875 2.15625l0 5.625l-1.640625 0l0 -6.28125q0 -1.09375 -0.40625 -1.640625q-0.40625 -0.546875 -1.3125 -0.546875q-0.6875 0 -1.28125 0.359375q-0.59375 0.359375 -0.859375 1.0625q-0.25 0.703125 -0.25 2.03125l0 5.015625l-1.640625 0zm26.442871 0l-1.640625 0l0 -10.453125q-0.59375 0.5625 -1.5625 1.140625q-0.953125 0.5625 -1.71875 0.84375l0 -1.59375q1.375 -0.640625 2.40625 -1.5625q1.03125 -0.921875 1.453125 -1.78125l1.0625 0l0 13.40625z" fill-rule="nonzero"/><path fill="#000000" fill-opacity="0.0" d="m790.53546 260.52625l120.0 0l0 22.015747l-120.0 0z" fill-rule="evenodd"/><path fill="#000000" d="m810.5042 282.75876l1.765625 0.453125q-0.5625 2.171875 -2.0 3.328125q-1.4375 1.140625 -3.53125 1.140625q-2.15625 0 -3.515625 -0.875q-1.34375 -0.890625 -2.0625 -2.546875q-0.703125 -1.671875 -0.703125 -3.59375q0 -2.078125 0.796875 -3.625q0.796875 -1.5625 2.265625 -2.359375q1.484375 -0.8125 3.25 -0.8125q2.0 0 3.359375 1.015625q1.375 1.015625 1.90625 2.875l-1.734375 0.40625q-0.46875 -1.453125 -1.359375 -2.109375q-0.875 -0.671875 -2.203125 -0.671875q-1.546875 0 -2.578125 0.734375q-1.03125 0.734375 -1.453125 1.984375q-0.421875 1.234375 -0.421875 2.5625q0 1.703125 0.5 2.96875q0.5 1.265625 1.546875 1.90625q1.046875 0.625 2.265625 0.625q1.484375 0 2.515625 -0.859375q1.03125 -0.859375 1.390625 -2.546875zm10.051025 3.5q-0.921875 0.765625 -1.765625 1.09375q-0.828125 0.3125 -1.796875 0.3125q-1.59375 0 -2.453125 -0.78125q-0.859375 -0.78125 -0.859375 -1.984375q0 -0.71875 0.328125 -1.296875q0.328125 -0.59375 0.84375 -0.9375q0.53125 -0.359375 1.1875 -0.546875q0.46875 -0.125 1.453125 -0.25q1.984375 -0.234375 2.921875 -0.5625q0.015625 -0.34375 0.015625 -0.421875q0 -1.0 -0.46875 -1.421875q-0.625 -0.546875 -1.875 -0.546875q-1.15625 0 -1.703125 0.40625q-0.546875 0.40625 -0.8125 1.421875l-1.609375 -0.21875q0.21875 -1.015625 0.71875 -1.640625q0.5 -0.640625 1.453125 -0.984375q0.953125 -0.34375 2.1875 -0.34375q1.25 0 2.015625 0.296875q0.78125 0.28125 1.140625 0.734375q0.375 0.4375 0.515625 1.109375q0.078125 0.421875 0.078125 1.515625l0 2.1875q0 2.28125 0.109375 2.890625q0.109375 0.59375 0.40625 1.15625l-1.703125 0q-0.265625 -0.515625 -0.328125 -1.1875zm-0.140625 -3.671875q-0.890625 0.375 -2.671875 0.625q-1.015625 0.140625 -1.4375 0.328125q-0.421875 0.1875 -0.65625 0.53125q-0.21875 0.34375 -0.21875 0.78125q0 0.65625 0.5 1.09375q0.5 0.4375 1.453125 0.4375q0.9375 0 1.671875 -0.40625q0.75 -0.421875 1.09375 -1.140625q0.265625 -0.5625 0.265625 -1.640625l0 -0.609375zm4.2038574 4.859375l0 -9.671875l1.46875 0l0 1.359375q0.453125 -0.71875 1.203125 -1.140625q0.765625 -0.4375 1.71875 -0.4375q1.078125 0 1.765625 0.453125q0.6875 0.4375 0.96875 1.234375q1.15625 -1.6875 2.984375 -1.6875q1.453125 0 2.21875 0.796875q0.78125 0.796875 0.78125 2.453125l0 6.640625l-1.640625 0l0 -6.09375q0 -0.984375 -0.15625 -1.40625q-0.15625 -0.4375 -0.578125 -0.703125q-0.421875 -0.265625 -0.984375 -0.265625q-1.015625 0 -1.6875 0.6875q-0.671875 0.671875 -0.671875 2.15625l0 5.625l-1.640625 0l0 -6.28125q0 -1.09375 -0.40625 -1.640625q-0.40625 -0.546875 -1.3125 -0.546875q-0.6875 0 -1.28125 0.359375q-0.59375 0.359375 -0.859375 1.0625q-0.25 0.703125 -0.25 2.03125l0 5.015625l-1.640625 0zm26.442871 0l-1.640625 0l0 -10.453125q-0.59375 0.5625 -1.5625 1.140625q-0.953125 0.5625 -1.71875 0.84375l0 -1.59375q1.375 -0.640625 2.40625 -1.5625q1.03125 -0.921875 1.453125 -1.78125l1.0625 0l0 13.40625z" fill-rule="nonzero"/><path fill="#000000" d="m801.874 316.6063l0 32.020477l22.699524 0l0 -3.7786865l-18.674194 0l0 -10.8992l16.827576 0l0 -3.7568054l-16.827576 0l0 -9.807098l17.96875 0l0 -3.7786865z" fill-rule="evenodd"/><path fill="#000000" d="m830.0098 316.6063l0 32.020477l3.880127 0l0 -27.258911l8.797607 27.258911l3.6311035 0l8.839111 -26.800232l0 26.800232l3.880127 0l0 -32.020477l-5.4155273 0l-7.282959 22.2789c-0.7331543 2.257019 -1.272644 3.967987 -1.6184082 5.132904c-0.3043213 -1.0484314 -0.7885132 -2.6283264 -1.4524536 -4.739746l-7.199951 -22.672058z" fill-rule="evenodd"/><path fill="#000000" d="m877.3386 320.38498c1.8259277 0 3.0777588 0.09463501 3.7556152 0.28393555c1.0512695 0.30578613 1.8973999 0.9367981 2.538269 1.8929749c0.64556885 0.951355 0.96832275 2.0968628 0.96832275 3.436493c0 1.8493042 -0.5463867 3.2835999 -1.6392212 4.302887c-1.0927734 1.0192871 -2.9394531 1.5289612 -5.539978 1.5289612l-7.8639526 0l0 -11.445251zm-11.806274 -3.7786865l0 32.020477l4.0253296 0l0 -13.017883l7.801697 0c4.302002 0 7.276001 -0.9416199 8.922119 -2.8248901c1.6461182 -1.8881226 2.4691772 -4.193695 2.4691772 -6.9166565c0 -1.5871887 -0.30895996 -3.043335 -0.92681885 -4.368408c-0.61328125 -1.3251038 -1.4248047 -2.3540955 -2.4345703 -3.0870361c-1.0097656 -0.73776245 -2.2616577 -1.2377014 -3.7556152 -1.4998169c-1.0651245 -0.20385742 -2.6074219 -0.30578613 -4.627014 -0.30578613z" fill-rule="evenodd"/><path stroke="#000000" stroke-width="2.0" stroke-linejoin="round" stroke-linecap="butt" d="m801.874 316.6063l0 32.020477l22.699524 0l0 -3.7786865l-18.674194 0l0 -10.8992l16.827576 0l0 -3.7568054l-16.827576 0l0 -9.807098l17.96875 0l0 -3.7786865z" fill-rule="evenodd"/><path stroke="#000000" stroke-width="2.0" stroke-linejoin="round" stroke-linecap="butt" d="m830.0098 316.6063l0 32.020477l3.880127 0l0 -27.258911l8.797607 27.258911l3.6311035 0l8.839111 -26.800232l0 26.800232l3.880127 0l0 -32.020477l-5.4155273 0l-7.282959 22.2789c-0.7331543 2.257019 -1.272644 3.967987 -1.6184082 5.132904c-0.3043213 -1.0484314 -0.7885132 -2.6283264 -1.4524536 -4.739746l-7.199951 -22.672058z" fill-rule="evenodd"/><path stroke="#000000" stroke-width="2.0" stroke-linejoin="round" stroke-linecap="butt" d="m877.3386 320.38498c1.8259277 0 3.0777588 0.09463501 3.7556152 0.28393555c1.0512695 0.30578613 1.8973999 0.9367981 2.538269 1.8929749c0.64556885 0.951355 0.96832275 2.0968628 0.96832275 3.436493c0 1.8493042 -0.5463867 3.2835999 -1.6392212 4.302887c-1.0927734 1.0192871 -2.9394531 1.5289612 -5.539978 1.5289612l-7.8639526 0l0 -11.445251zm-11.806274 -3.7786865l0 32.020477l4.0253296 0l0 -13.017883l7.801697 0c4.302002 0 7.276001 -0.9416199 8.922119 -2.8248901c1.6461182 -1.8881226 2.4691772 -4.193695 2.4691772 -6.9166565c0 -1.5871887 -0.30895996 -3.043335 -0.92681885 -4.368408c-0.61328125 -1.3251038 -1.4248047 -2.3540955 -2.4345703 -3.0870361c-1.0097656 -0.73776245 -2.2616577 -1.2377014 -3.7556152 -1.4998169c-1.0651245 -0.20385742 -2.6074219 -0.30578613 -4.627014 -0.30578613z" fill-rule="evenodd"/><path fill="#f3f3f3" d="m770.6962 7.785253c2.2547607 0 3.9031372 0.48780584 4.9452515 1.4634185c1.0466309 0.97561264 1.5700073 2.2206097 1.5700073 3.734993c0 1.0338573 -0.2697754 1.9924822 -0.80926514 2.8758717c-0.5394287 0.8785372 -1.3279419 1.5192385 -2.3653564 1.922101c-1.0374756 0.39801216 -2.4760742 0.5970173 -4.315857 0.5970173l-8.652344 0l0 -10.593401zm-13.652893 -3.538414l0 32.020466l4.0253296 0l0 -14.219183l4.668518 0c1.0374756 0 1.7844238 0.050966263 2.2409058 0.15289497c0.62249756 0.16017532 1.2334595 0.4441223 1.8328247 0.851841c0.60406494 0.40771866 1.286499 1.1212254 2.0473022 2.140522c0.7608032 1.0192966 1.729065 2.489996 2.9048462 4.412096l4.0253296 6.661829l5.062805 0l-5.2910156 -8.714983c-1.0513306 -1.70368 -2.164856 -3.123415 -3.3406372 -4.259201c-0.5532837 -0.52421 -1.3625488 -1.0557003 -2.4276123 -1.594471c2.9187012 -0.42227936 5.076599 -1.4124546 6.473694 -2.970522c1.3970947 -1.5580673 2.095642 -3.472887 2.095642 -5.744462c0 -1.7619267 -0.421875 -3.3709583 -1.265686 -4.827096c-0.84381104 -1.4561377 -1.9711304 -2.4705806 -3.38208 -3.0433278c-1.4109497 -0.57760143 -3.472046 -0.8664017 -6.1832275 -0.8664017z" fill-rule="evenodd"/><path fill="#f3f3f3" d="m796.1347 15.8012905c1.8397217 0 3.3775024 0.74020386 4.61322 2.2206097c1.2402954 1.4755535 1.8604736 3.647625 1.8604736 6.5162163c0 3.0433273 -0.61553955 5.307621 -1.8466797 6.792881c-1.2310791 1.48526 -2.7734375 2.22789 -4.627014 2.22789c-1.8674316 0 -3.416687 -0.7377777 -4.647827 -2.2133274c-1.2311401 -1.4804077 -1.8466797 -3.7058697 -1.8466797 -6.6763916c0 -2.97052 0.61553955 -5.1911297 1.8466797 -6.661829c1.2311401 -1.4706993 2.7803955 -2.206049 4.647827 -2.206049zm0 -3.254467c-2.7250977 0 -5.0351562 0.8591213 -6.930237 2.577363c-2.2685547 2.0677156 -3.402832 5.2493773 -3.402832 9.544982c0 3.9170113 0.9498291 6.9166546 2.8495483 8.99893c1.9042969 2.0822792 4.3988037 3.123417 7.4835205 3.123417c1.9227295 0 3.6956177 -0.47324753 5.3186646 -1.419735c1.6276855 -0.94649124 2.8656616 -2.274002 3.7141113 -3.9825363c0.85302734 -1.7133904 1.279541 -4.062624 1.279541 -7.0477066c0 -3.6840286 -0.9614258 -6.569607 -2.8841553 -8.656737c-1.9227295 -2.0919838 -4.3988037 -3.1379766 -7.4281616 -3.1379766z" fill-rule="evenodd"/><path fill="#f3f3f3" d="m819.76794 15.8012905c1.8397827 0 3.3775024 0.74020386 4.61322 2.2206097c1.2403564 1.4755535 1.8605347 3.647625 1.8605347 6.5162163c0 3.0433273 -0.6156006 5.307621 -1.8466797 6.792881c-1.2311401 1.48526 -2.7734985 2.22789 -4.627075 2.22789c-1.8674316 0 -3.416687 -0.7377777 -4.647827 -2.2133274c-1.2310791 -1.4804077 -1.8466797 -3.7058697 -1.8466797 -6.6763916c0 -2.97052 0.6156006 -5.1911297 1.8466797 -6.661829c1.2311401 -1.4706993 2.7803955 -2.206049 4.647827 -2.206049zm0 -3.254467c-2.7250366 0 -5.035095 0.8591213 -6.930237 2.577363c-2.2685547 2.0677156 -3.402832 5.2493773 -3.402832 9.544982c0 3.9170113 0.9498291 6.9166546 2.8495483 8.99893c1.9042969 2.0822792 4.3988037 3.123417 7.4835205 3.123417c1.9227295 0 3.6956787 -0.47324753 5.3186646 -1.419735c1.6276855 -0.94649124 2.8657227 -2.274002 3.7141113 -3.9825363c0.85302734 -1.7133904 1.279541 -4.062624 1.279541 -7.0477066c0 -3.6840286 -0.96136475 -6.569607 -2.8841553 -8.656737c-1.9227295 -2.0919838 -4.3988037 -3.1379766 -7.4281616 -3.1379766z" fill-rule="evenodd"/><path fill="#f3f3f3" d="m844.48016 12.5468235c-1.4662476 0 -2.7734985 0.34704685 -3.9215698 1.0411377c-1.1481323 0.6892395 -2.0679932 1.6017513 -2.7596436 2.7375393l0 -3.254468l-3.3406372 0l0 23.19627l3.7348633 0l0 -12.034975c0 -2.1114006 0.20056152 -3.7277126 0.6017456 -4.84894c0.40112305 -1.1212254 1.0466309 -1.9730663 1.9365845 -2.555521c0.8944702 -0.5824547 1.8673706 -0.873682 2.9187012 -0.873682c1.3832397 0 2.3792114 0.43684006 2.987854 1.310524c0.6086426 0.873682 0.91296387 2.184206 0.91296387 3.931572l0 15.071022l3.7348633 0l0 -13.476553c0 -2.3880653 0.5117798 -4.123295 1.5354004 -5.2056904c1.0236206 -1.0872498 2.3101196 -1.6308746 3.859375 -1.6308746c0.857605 0 1.6046143 0.21113968 2.2409058 0.63341904c0.6362915 0.42228127 1.0743408 0.98046684 1.3140869 1.6745586c0.24438477 0.6892395 0.36657715 1.8201714 0.36657715 3.3928013l0 14.612339l3.7141113 0l0 -15.922863c0 -2.6501713 -0.5878906 -4.611102 -1.7636719 -5.8827963c-1.1757812 -1.2765465 -2.8565063 -1.9148207 -5.042053 -1.9148207c-2.7941895 0 -5.062805 1.354208 -6.805725 4.062624c-0.428833 -1.2814016 -1.166565 -2.2788553 -2.2132568 -2.992363c-1.0420532 -0.71350765 -2.3792114 -1.070261 -4.0114746 -1.070261z" fill-rule="evenodd"/><path fill="#f3f3f3" d="m894.61005 16.3255l-1.5561523 7.928669l-6.515259 0l1.5354614 -7.928669zm-7.220703 -12.624713l-1.8051758 9.370245l-6.2869873 0l0 3.254468l5.664551 0l-1.5354614 7.928669l-4.1290894 0l0 3.254467l3.5066528 0l-1.8051758 9.304722l3.1123657 0l1.8051758 -9.304722l6.5151978 0l-1.7844238 9.304722l3.1123657 0l1.8051758 -9.304722l6.390747 0l0 -3.254467l-5.7682495 0l1.5561523 -7.928669l4.212097 0l0 -3.254468l-3.5895996 0l1.8051758 -9.370245l-3.1331177 0l-1.8051758 9.370245l-6.5359497 0l1.8051758 -9.370245z" fill-rule="evenodd"/><path stroke="#f3f3f3" stroke-width="2.0" stroke-linejoin="round" stroke-linecap="butt" d="m770.6962 7.785253c2.2547607 0 3.9031372 0.48780584 4.9452515 1.4634185c1.0466309 0.97561264 1.5700073 2.2206097 1.5700073 3.734993c0 1.0338573 -0.2697754 1.9924822 -0.80926514 2.8758717c-0.5394287 0.8785372 -1.3279419 1.5192385 -2.3653564 1.922101c-1.0374756 0.39801216 -2.4760742 0.5970173 -4.315857 0.5970173l-8.652344 0l0 -10.593401zm-13.652893 -3.538414l0 32.020466l4.0253296 0l0 -14.219183l4.668518 0c1.0374756 0 1.7844238 0.050966263 2.2409058 0.15289497c0.62249756 0.16017532 1.2334595 0.4441223 1.8328247 0.851841c0.60406494 0.40771866 1.286499 1.1212254 2.0473022 2.140522c0.7608032 1.0192966 1.729065 2.489996 2.9048462 4.412096l4.0253296 6.661829l5.062805 0l-5.2910156 -8.714983c-1.0513306 -1.70368 -2.164856 -3.123415 -3.3406372 -4.259201c-0.5532837 -0.52421 -1.3625488 -1.0557003 -2.4276123 -1.594471c2.9187012 -0.42227936 5.076599 -1.4124546 6.473694 -2.970522c1.3970947 -1.5580673 2.095642 -3.472887 2.095642 -5.744462c0 -1.7619267 -0.421875 -3.3709583 -1.265686 -4.827096c-0.84381104 -1.4561377 -1.9711304 -2.4705806 -3.38208 -3.0433278c-1.4109497 -0.57760143 -3.472046 -0.8664017 -6.1832275 -0.8664017z" fill-rule="evenodd"/><path stroke="#f3f3f3" stroke-width="2.0" stroke-linejoin="round" stroke-linecap="butt" d="m796.1347 15.8012905c1.8397217 0 3.3775024 0.74020386 4.61322 2.2206097c1.2402954 1.4755535 1.8604736 3.647625 1.8604736 6.5162163c0 3.0433273 -0.61553955 5.307621 -1.8466797 6.792881c-1.2310791 1.48526 -2.7734375 2.22789 -4.627014 2.22789c-1.8674316 0 -3.416687 -0.7377777 -4.647827 -2.2133274c-1.2311401 -1.4804077 -1.8466797 -3.7058697 -1.8466797 -6.6763916c0 -2.97052 0.61553955 -5.1911297 1.8466797 -6.661829c1.2311401 -1.4706993 2.7803955 -2.206049 4.647827 -2.206049zm0 -3.254467c-2.7250977 0 -5.0351562 0.8591213 -6.930237 2.577363c-2.2685547 2.0677156 -3.402832 5.2493773 -3.402832 9.544982c0 3.9170113 0.9498291 6.9166546 2.8495483 8.99893c1.9042969 2.0822792 4.3988037 3.123417 7.4835205 3.123417c1.9227295 0 3.6956177 -0.47324753 5.3186646 -1.419735c1.6276855 -0.94649124 2.8656616 -2.274002 3.7141113 -3.9825363c0.85302734 -1.7133904 1.279541 -4.062624 1.279541 -7.0477066c0 -3.6840286 -0.9614258 -6.569607 -2.8841553 -8.656737c-1.9227295 -2.0919838 -4.3988037 -3.1379766 -7.4281616 -3.1379766z" fill-rule="evenodd"/><path stroke="#f3f3f3" stroke-width="2.0" stroke-linejoin="round" stroke-linecap="butt" d="m819.76794 15.8012905c1.8397827 0 3.3775024 0.74020386 4.61322 2.2206097c1.2403564 1.4755535 1.8605347 3.647625 1.8605347 6.5162163c0 3.0433273 -0.6156006 5.307621 -1.8466797 6.792881c-1.2311401 1.48526 -2.7734985 2.22789 -4.627075 2.22789c-1.8674316 0 -3.416687 -0.7377777 -4.647827 -2.2133274c-1.2310791 -1.4804077 -1.8466797 -3.7058697 -1.8466797 -6.6763916c0 -2.97052 0.6156006 -5.1911297 1.8466797 -6.661829c1.2311401 -1.4706993 2.7803955 -2.206049 4.647827 -2.206049zm0 -3.254467c-2.7250366 0 -5.035095 0.8591213 -6.930237 2.577363c-2.2685547 2.0677156 -3.402832 5.2493773 -3.402832 9.544982c0 3.9170113 0.9498291 6.9166546 2.8495483 8.99893c1.9042969 2.0822792 4.3988037 3.123417 7.4835205 3.123417c1.9227295 0 3.6956787 -0.47324753 5.3186646 -1.419735c1.6276855 -0.94649124 2.8657227 -2.274002 3.7141113 -3.9825363c0.85302734 -1.7133904 1.279541 -4.062624 1.279541 -7.0477066c0 -3.6840286 -0.96136475 -6.569607 -2.8841553 -8.656737c-1.9227295 -2.0919838 -4.3988037 -3.1379766 -7.4281616 -3.1379766z" fill-rule="evenodd"/><path stroke="#f3f3f3" stroke-width="2.0" stroke-linejoin="round" stroke-linecap="butt" d="m844.48016 12.5468235c-1.4662476 0 -2.7734985 0.34704685 -3.9215698 1.0411377c-1.1481323 0.6892395 -2.0679932 1.6017513 -2.7596436 2.7375393l0 -3.254468l-3.3406372 0l0 23.19627l3.7348633 0l0 -12.034975c0 -2.1114006 0.20056152 -3.7277126 0.6017456 -4.84894c0.40112305 -1.1212254 1.0466309 -1.9730663 1.9365845 -2.555521c0.8944702 -0.5824547 1.8673706 -0.873682 2.9187012 -0.873682c1.3832397 0 2.3792114 0.43684006 2.987854 1.310524c0.6086426 0.873682 0.91296387 2.184206 0.91296387 3.931572l0 15.071022l3.7348633 0l0 -13.476553c0 -2.3880653 0.5117798 -4.123295 1.5354004 -5.2056904c1.0236206 -1.0872498 2.3101196 -1.6308746 3.859375 -1.6308746c0.857605 0 1.6046143 0.21113968 2.2409058 0.63341904c0.6362915 0.42228127 1.0743408 0.98046684 1.3140869 1.6745586c0.24438477 0.6892395 0.36657715 1.8201714 0.36657715 3.3928013l0 14.612339l3.7141113 0l0 -15.922863c0 -2.6501713 -0.5878906 -4.611102 -1.7636719 -5.8827963c-1.1757812 -1.2765465 -2.8565063 -1.9148207 -5.042053 -1.9148207c-2.7941895 0 -5.062805 1.354208 -6.805725 4.062624c-0.428833 -1.2814016 -1.166565 -2.2788553 -2.2132568 -2.992363c-1.0420532 -0.71350765 -2.3792114 -1.070261 -4.0114746 -1.070261z" fill-rule="evenodd"/><path stroke="#f3f3f3" stroke-width="2.0" stroke-linejoin="round" stroke-linecap="butt" d="m894.61005 16.3255l-1.5561523 7.928669l-6.515259 0l1.5354614 -7.928669zm-7.220703 -12.624713l-1.8051758 9.370245l-6.2869873 0l0 3.254468l5.664551 0l-1.5354614 7.928669l-4.1290894 0l0 3.254467l3.5066528 0l-1.8051758 9.304722l3.1123657 0l1.8051758 -9.304722l6.5151978 0l-1.7844238 9.304722l3.1123657 0l1.8051758 -9.304722l6.390747 0l0 -3.254467l-5.7682495 0l1.5561523 -7.928669l4.212097 0l0 -3.254468l-3.5895996 0l1.8051758 -9.370245l-3.1331177 0l-1.8051758 9.370245l-6.5359497 0l1.8051758 -9.370245z" fill-rule="evenodd"/></g></svg>