<svg version="1.1" viewBox="0.0 0.0 960.0 720.0" fill="none" stroke="none" stroke-linecap="square" stroke-miterlimit="10" xmlns:xlink="http://www.w3.org/1999/xlink" xmlns="http://www.w3.org/2000/svg"><clipPath id="p.0"><path d="m0 0l960.0 0l0 720.0l-960.0 0l0 -720.0z" clip-rule="nonzero"/></clipPath><g clip-path="url(#p.0)"><path fill="#000000" fill-opacity="0.0" d="m0 0l960.0 0l0 720.0l-960.0 0z" fill-rule="evenodd"/><path fill="#434343" d="m-1.0551181 -7.3858266l967.46454 0l0 753.22833l-967.46454 0z" fill-rule="evenodd"/><path fill="#660000" d="m95.343704 204.45757l0 0c-7.5335083 -49.58101 17.200493 -98.663216 63.70645 -126.41921c46.505966 -27.755993 106.62773 -29.317986 154.85347 -4.023163l0 0c17.083008 -28.828457 48.349915 -48.73252 84.34308 -53.691597c35.993195 -4.959072 72.48508 5.6093063 98.43762 28.50841l0 0c14.552521 -26.137737 43.12671 -43.698956 75.582886 -46.452023c32.456177 -2.7530682 64.20105 9.691641 83.96985 32.918095l0 0c26.29126 -27.70593 68.1214 -39.37128 107.39014 -29.948383c39.2688 9.422895 68.92328 38.2416 76.131714 73.9861l0 0c32.211304 7.868599 59.042603 27.871628 73.561646 54.84095c14.518982 26.969315 15.301392 58.259277 2.1450806 85.78558l0 0c31.718689 36.97084 39.13849 86.23399 19.490479 129.40541c-19.648071 43.171387 -63.41205 73.76495 -114.96008 80.36377c-0.3633423 40.517914 -25.175842 77.696625 -64.87372 97.20587c-39.697876 19.509277 -88.08215 18.302612 -126.50342 -3.1548462l0 0c-16.365417 48.52722 -62.42865 84.23303 -118.288605 91.691284c-55.859985 7.458252 -111.502716 -14.668091 -142.88852 -56.819702l0 0c-38.472412 20.776672 -84.63611 26.76178 -128.0775 16.605164c-43.441376 -10.156555 -80.50116 -35.599304 -102.81938 -70.588776l0 0c-39.313988 4.120117 -77.32517 -14.121399 -95.16875 -45.671326c-17.843576 -31.549927 -11.721073 -69.69205 15.328934 -95.49655l0 0c-35.069088 -18.485138 -52.96345 -55.16574 -44.35188 -90.91434c8.61157 -35.748627 41.77766 -62.464462 82.20346 -66.21626z" fill-rule="evenodd"/><path fill="#000000" fill-opacity="0.0" d="m56.715004 363.49908l0 0c16.54921 8.723175 35.667427 12.680237 54.78772 11.339844m25.04348 129.8312c8.222427 -0.86169434 16.281967 -2.686493 23.97078 -5.4272766m206.91463 59.40863c-5.783142 -7.7668457 -10.625061 -16.066345 -14.443298 -24.757141m275.63034 -10.115906l0 0c2.9837036 -8.847229 4.91687 -17.952942 5.767212 -27.165222m185.60272 -66.882385c0.38684082 -43.137573 -26.971436 -82.634735 -70.32361 -101.52637m165.7923 -108.2383c-7.020752 14.689163 -17.738708 27.719696 -31.313477 38.06996m-44.386658 -178.70035l0 0c1.1962891 5.931816 1.7498779 11.952774 1.6531982 17.979439m-185.17194 -62.015354l0 0c-6.5583496 6.911255 -11.961609 14.634487 -16.041443 22.92923m-143.51279 -9.398323l0 0c-3.4950562 6.277439 -6.1049194 12.920044 -7.7695007 19.7748m-175.01389 5.4089127l0 0c10.204529 5.3523636 19.645111 11.79451 28.11435 19.184921m-246.67143 111.25815l0 0c1.0383072 6.833557 2.678894 13.582855 4.9064026 20.184738" fill-rule="evenodd"/><path fill="#ffffff" d="m47.414867 666.19946l153.55199 0l0 0c20.115738 0 36.422745 12.043884 36.422745 26.900818c0 14.856873 -16.307007 26.900757 -36.422745 26.900757l-153.55199 0l0 0c-20.115725 0 -36.42274 -12.043884 -36.42274 -26.900757c0 -14.856934 16.307018 -26.900818 36.42274 -26.900818z" fill-rule="evenodd"/><path stroke="#9b7c1d" stroke-width="3.0" stroke-linejoin="round" stroke-linecap="butt" d="m47.414867 666.19946l153.55199 0l0 0c20.115738 0 36.422745 12.043884 36.422745 26.900818c0 14.856873 -16.307007 26.900757 -36.422745 26.900757l-153.55199 0l0 0c-20.115725 0 -36.42274 -12.043884 -36.42274 -26.900757c0 -14.856934 16.307018 -26.900818 36.42274 -26.900818z" fill-rule="evenodd"/><path fill="#ffffff" d="m782.7329 666.19946l139.5788 0l0 0c18.285156 0 33.108215 12.043884 33.108215 26.900818c0 14.856873 -14.823059 26.900757 -33.108215 26.900757l-139.5788 0l0 0c-18.285156 0 -33.108215 -12.043884 -33.108215 -26.900757c0 -14.856934 14.823059 -26.900818 33.108215 -26.900818z" fill-rule="evenodd"/><path stroke="#9b7c1d" stroke-width="3.0" stroke-linejoin="round" stroke-linecap="butt" d="m782.7329 666.19946l139.5788 0l0 0c18.285156 0 33.108215 12.043884 33.108215 26.900818c0 14.856873 -14.823059 26.900757 -33.108215 26.900757l-139.5788 0l0 0c-18.285156 0 -33.108215 -12.043884 -33.108215 -26.900757c0 -14.856934 14.823059 -26.900818 33.108215 -26.900818z" fill-rule="evenodd"/><path fill="#9b7c1d" d="m296.3736 661.4263c0.9320984 3.262268 2.3576355 7.429199 4.2766113 12.500793l6.2915344 16.69519l-20.437225 0l6.620514 -17.682068c1.3981018 -3.8105469 2.4809875 -7.6484985 3.2485657 -11.513916zm-4.1121216 -6.3326416l-23.151245 60.28351l8.470978 0l6.620514 -18.257751l25.207306 0l7.0317383 18.257751l9.087799 0l-24.67276 -60.28351z" fill-rule="evenodd"/><path fill="#9b7c1d" d="m346.99384 670.71967c-1.7270813 0 -3.312561 0.4934082 -4.7563477 1.4803467c-1.4346924 0.98687744 -3.0018616 3.0292358 -4.701538 6.127014l0 -6.6204834l-6.6616516 0l0 43.670593l7.401825 0l0 -22.863281c0 -3.1252441 0.41122437 -6.003723 1.2336426 -8.635437c0.5482788 -1.7271118 1.4666748 -3.0749512 2.755127 -4.043579c1.2884521 -0.9777832 2.7414246 -1.4666748 4.358856 -1.4666748c1.8093262 0 3.6186523 0.53460693 5.428009 1.6036987l2.5494995 -6.8671875c-2.5769348 -1.5900269 -5.112732 -2.3850098 -7.607422 -2.3850098zm20.725098 -14.269043l-7.3606873 4.441101l0 10.814819l-5.428009 0l0 5.756958l5.428009 0l0 25.125c0 4.441101 0.3015442 7.356079 0.9046631 8.745056c0.6030884 1.3798828 1.6448364 2.49469 3.1252136 3.3445435c1.4803467 0.8498535 3.5638428 1.2747803 6.2504272 1.2747803c1.6448364 0 3.5090027 -0.21936035 5.5924683 -0.657959l-1.0691528 -6.538269c-1.3432922 0.19189453 -2.4261475 0.2878418 -3.2485657 0.2878418c-1.0965576 0 -1.9418335 -0.17816162 -2.535797 -0.5345459c-0.5848694 -0.35638428 -1.0097656 -0.8361206 -1.2747803 -1.43927c-0.25585938 -0.6030884 -0.38378906 -1.960083 -0.38378906 -4.070984l0 -25.536194l7.442932 0l0 -5.756958l-7.442932 0l0 -15.25592z" fill-rule="evenodd"/><path fill="#9b7c1d" d="m404.15234 654.0656c-4.057312 0 -7.744507 0.68536377 -11.061615 2.0560303c-3.3171082 1.3707275 -5.839203 3.3811035 -7.5663147 6.031128c-1.7270813 2.6408691 -2.5906372 5.482788 -2.5906372 8.525757c0 2.7687988 0.7036438 5.272644 2.1109009 7.5114746c1.4164124 2.2296753 3.5638428 4.0983887 6.442322 5.60614c2.2205505 1.178833 6.09964 2.4353027 11.637299 3.7694702c5.5376587 1.3250122 9.115204 2.3027344 10.732666 2.9332886c2.5220947 0.95947266 4.331421 2.1474 5.4279785 3.5638428c1.0965881 1.4072266 1.644867 3.0566406 1.644867 4.948242c0 1.8641357 -0.5711365 3.58667 -1.7133789 5.1675415c-1.1331177 1.5717163 -2.8648071 2.8099365 -5.1950073 3.7145996c-2.3302002 0.9046631 -5.0167847 1.3569946 -8.059753 1.3569946c-3.4267578 0 -6.5108643 -0.59399414 -9.252258 -1.7819214c-2.7414246 -1.1970825 -4.765503 -2.7597046 -6.072235 -4.687805c-1.2976074 -1.9372559 -2.1246033 -4.4136353 -2.4809875 -7.429199l-7.525177 0.65789795c0.10964966 4.029907 1.2107849 7.643982 3.3034058 10.842285c2.1017456 3.189148 4.993927 5.5787964 8.676575 7.168762c3.6917725 1.5900269 8.26535 2.3850708 13.720764 2.3850708c4.304016 0 8.174011 -0.7858887 11.609894 -2.357666c3.4450684 -1.5808716 6.0859375 -3.7876587 7.922699 -6.6204834c1.8367615 -2.841919 2.755127 -5.866577 2.755127 -9.074036c0 -3.2348633 -0.8361511 -6.090515 -2.5083923 -8.566895c-1.6722717 -2.4855347 -4.262909 -4.5370483 -7.7719116 -6.15448c-2.412445 -1.0965576 -6.862671 -2.3758545 -13.350708 -3.8379517c-6.478882 -1.4711914 -10.485901 -2.9058838 -12.021088 -4.304016c-1.5626221 -1.3981323 -2.343933 -3.1800537 -2.343933 -5.345764c0 -2.494629 1.1011353 -4.6238403 3.3034058 -6.387451c2.2114258 -1.7727661 5.7295837 -2.6591797 10.554474 -2.6591797c4.632965 0 8.132843 0.97320557 10.499603 2.9196167c2.375885 1.9464111 3.7694397 4.82489 4.180664 8.635437l7.6485596 -0.5756836c-0.13708496 -3.536438 -1.1239929 -6.702759 -2.9607544 -9.499023c-1.836731 -2.7962036 -4.463928 -4.911682 -7.8815613 -6.3463135c-3.4084778 -1.4438477 -7.346985 -2.1657104 -11.815491 -2.1657104z" fill-rule="evenodd"/><path fill="#9b7c1d" d="m456.21182 670.71967c-3.7557373 0 -7.232788 0.88635254 -10.431091 2.6591187c-3.1891785 1.7636719 -5.5650635 4.4136963 -7.1276855 7.9500732c-1.5625916 3.536438 -2.3439026 7.6622925 -2.3439026 12.377502c0 7.2921143 1.8139038 12.893738 5.4417114 16.80481c3.6369324 3.9019165 8.4435425 5.8529053 14.41983 5.8529053c4.7700806 0 8.790802 -1.4163818 12.062225 -4.2492065c3.2805786 -2.841919 5.3183594 -6.77124 6.113373 -11.788025l-7.278473 -0.9458008c-0.520874 3.7009277 -1.7544861 6.442322 -3.7008972 8.224243c-1.9464111 1.7819214 -4.3725586 2.6728516 -7.278473 2.6728516c-3.6186523 0 -6.5519714 -1.3295898 -8.799927 -3.9887695c-2.2479553 -2.6591187 -3.3719482 -6.921997 -3.3719482 -12.788635c0 -5.784363 1.1651001 -10.010681 3.4953003 -12.679016c2.3302002 -2.6774292 5.3594666 -4.0161743 9.087799 -4.0161743c2.4672852 0 4.569031 0.7402344 6.3052673 2.220581c1.7453613 1.4803467 2.9607239 3.6871948 3.6460571 6.6204834l7.196228 -1.1102905c-0.8498535 -4.4136353 -2.7825317 -7.817566 -5.7980957 -10.211731c-3.015564 -2.4033203 -6.8946533 -3.6049194 -11.637299 -3.6049194z" fill-rule="evenodd"/><path fill="#9b7c1d" d="m508.55914 693.4596l0 2.7139893c0 3.262268 -0.39752197 5.729553 -1.1925049 7.4017944c-1.041748 2.1657104 -2.672882 3.8745728 -4.8934326 5.126465c-2.2205505 1.2427368 -4.756378 1.8641357 -7.607422 1.8641357c-2.8785095 0 -5.0670776 -0.65789795 -6.5657043 -1.9738159c-1.489502 -1.3158569 -2.234253 -2.9606934 -2.234253 -4.9345093c0 -1.2884521 0.34268188 -2.45813 1.0280457 -3.5090332c0.68533325 -1.0599976 1.6585388 -1.8641357 2.9195862 -2.4124146c1.2610474 -0.5482788 3.4130554 -1.041748 6.456024 -1.4803467c5.3731995 -0.7675781 9.403076 -1.699707 12.089661 -2.7962646zm-9.416779 -22.73993c-3.7557373 0 -7.059143 0.5162964 -9.910217 1.5488892c-2.8510437 1.0234375 -5.030487 2.4901123 -6.538269 4.3999634c-1.507782 1.9006958 -2.5906372 4.3999634 -3.2485657 7.4977417l7.237335 0.98687744c0.7950134 -3.0977783 2.0195007 -5.2543335 3.6734924 -6.4697266c1.6631165 -1.2244873 4.2354736 -1.836731 7.7170715 -1.836731c3.7283325 0 6.5382996 0.8361206 8.429871 2.5084229c1.3981018 1.2335815 2.097168 3.3582153 2.097168 6.3737183c0 0.27416992 -0.013702393 0.918396 -0.041107178 1.9327393c-2.8236694 0.98687744 -7.223633 1.836731 -13.199921 2.5494995c-2.933319 0.35638428 -5.1264343 0.7264404 -6.5794067 1.1102295c-1.9738159 0.5482788 -3.7511597 1.3569946 -5.3320312 2.4261475c-1.5717468 1.0691528 -2.846527 2.4901123 -3.8242798 4.2629395c-0.9686279 1.7636108 -1.4529419 3.7145996 -1.4529419 5.852844c0 3.6461182 1.2884521 6.6433716 3.865387 8.991821c2.5769348 2.3393555 6.2641296 3.5090332 11.061615 3.5090332c2.9058838 0 5.6244507 -0.47973633 8.155701 -1.43927c2.5403748 -0.95947266 5.1812744 -2.604309 7.922699 -4.9345093c0.21929932 2.0560303 0.71276855 3.8516846 1.4803467 5.386841l7.730774 0c-0.9320679 -1.6722412 -1.5579834 -3.4176025 -1.8778687 -5.236084c-0.31066895 -1.8275757 -0.46600342 -6.1818237 -0.46600342 -13.062805l0 -9.869019c0 -3.289734 -0.12335205 -5.5650635 -0.3701172 -6.826111c-0.43859863 -2.0286865 -1.2061768 -3.7055054 -2.3027954 -5.0305176c-1.0965576 -1.3341064 -2.8099365 -2.4398193 -5.1401367 -3.3170776c-2.3302002 -0.8772583 -5.3594666 -1.3158569 -9.087799 -1.3158569z" fill-rule="evenodd"/><path fill="#9b7c1d" d="m546.2262 676.5177c3.1800537 0 5.9122925 1.3843994 8.196838 4.1532593c2.2936401 2.7687988 3.4404297 6.93573 3.4404297 12.500793c0 5.8392334 -1.1741943 10.152344 -3.522705 12.939453c-2.3393555 2.777954 -5.1538696 4.166931 -8.4435425 4.166931c-3.2348633 0 -5.98999 -1.3432617 -8.265381 -4.029846c-2.2753906 -2.6865845 -3.413025 -6.8398438 -3.413025 -12.459717c0 -5.619873 1.2107544 -9.901062 3.6323242 -12.843506c2.430725 -2.951538 5.222412 -4.427368 8.375061 -4.427368zm0.69903564 -5.7980347c-2.8510742 0 -5.2772217 0.55737305 -7.2784424 1.6722412c-2.0012207 1.1057129 -3.796875 2.7687988 -5.386902 4.98938l0 -5.6747437l-6.7438354 0l0 60.40692l7.4017944 0l0 -21.259644c1.2610474 1.5900269 2.8693237 2.9058838 4.82489 3.9476318c1.9646606 1.041748 4.180664 1.5626221 6.647949 1.5626221c3.3719482 0 6.5839233 -0.9503784 9.636047 -2.8510742c3.0612793 -1.9098511 5.3914795 -4.651245 6.9906006 -8.224243c1.6083374 -3.5820923 2.4124756 -7.607361 2.4124756 -12.075867c0 -4.166931 -0.72650146 -7.9957886 -2.1794434 -11.486511c-1.4529419 -3.499878 -3.6049805 -6.2092896 -6.4560547 -8.128235c-2.8510742 -1.9190063 -6.140747 -2.878479 -9.86908 -2.878479z" fill-rule="evenodd"/><path fill="#9b7c1d" d="m602.2333 693.4596l0 2.7139893c0 3.262268 -0.39746094 5.729553 -1.1925049 7.4017944c-1.041748 2.1657104 -2.6728516 3.8745728 -4.8934326 5.126465c-2.22052 1.2427368 -4.7563477 1.8641357 -7.607422 1.8641357c-2.878479 0 -5.0670166 -0.65789795 -6.565674 -1.9738159c-1.489502 -1.3158569 -2.234253 -2.9606934 -2.234253 -4.9345093c0 -1.2884521 0.34265137 -2.45813 1.0280151 -3.5090332c0.68536377 -1.0599976 1.6585693 -1.8641357 2.9196167 -2.4124146c1.2610474 -0.5482788 3.413086 -1.041748 6.4560547 -1.4803467c5.373169 -0.7675781 9.403015 -1.699707 12.0896 -2.7962646zm-9.416748 -22.73993c-3.7557373 0 -7.059143 0.5162964 -9.910217 1.5488892c-2.8510742 1.0234375 -5.0305176 2.4901123 -6.538269 4.3999634c-1.5077515 1.9006958 -2.5906372 4.3999634 -3.2485962 7.4977417l7.2373657 0.98687744c0.7949829 -3.0977783 2.0195312 -5.2543335 3.673462 -6.4697266c1.663147 -1.2244873 4.2355347 -1.836731 7.717102 -1.836731c3.7283325 0 6.538269 0.8361206 8.429871 2.5084229c1.3981323 1.2335815 2.097168 3.3582153 2.097168 6.3737183c0 0.27416992 -0.01373291 0.918396 -0.041137695 1.9327393c-2.8236084 0.98687744 -7.223633 1.836731 -13.19989 2.5494995c-2.9332886 0.35638428 -5.126465 0.7264404 -6.5794067 1.1102295c-1.9738159 0.5482788 -3.7511597 1.3569946 -5.3320312 2.4261475c-1.5717773 1.0691528 -2.8464966 2.4901123 -3.8242798 4.2629395c-0.9686279 1.7636108 -1.4529419 3.7145996 -1.4529419 5.852844c0 3.6461182 1.2884521 6.6433716 3.8653564 8.991821c2.5769653 2.3393555 6.26416 3.5090332 11.0616455 3.5090332c2.9058838 0 5.6244507 -0.47973633 8.155701 -1.43927c2.5404053 -0.95947266 5.1812744 -2.604309 7.9226685 -4.9345093c0.21936035 2.0560303 0.71276855 3.8516846 1.4804077 5.386841l7.730774 0c-0.9320679 -1.6722412 -1.5580444 -3.4176025 -1.8778687 -5.236084c-0.31072998 -1.8275757 -0.46606445 -6.1818237 -0.46606445 -13.062805l0 -9.869019c0 -3.289734 -0.12335205 -5.5650635 -0.37005615 -6.826111c-0.43865967 -2.0286865 -1.2062378 -3.7055054 -2.3027954 -5.0305176c-1.0965576 -1.3341064 -2.8099365 -2.4398193 -5.1401978 -3.3170776c-2.3302002 -0.8772583 -5.359436 -1.3158569 -9.087769 -1.3158569z" fill-rule="evenodd"/><path fill="#9b7c1d" d="m637.6798 676.8467c3.3719482 0 6.2092896 1.3981323 8.512085 4.194336c2.3027954 2.7962646 3.4541626 7.182495 3.4541626 13.158752c0 5.4280396 -1.1331177 9.467041 -3.399353 12.117065c-2.25708 2.6408691 -5.0030518 3.9613037 -8.237915 3.9613037c-3.2074585 0 -5.98999 -1.3843994 -8.347656 -4.1531982c-2.357605 -2.7688599 -3.536377 -6.949524 -3.536377 -12.541992c0 -5.784363 1.1011353 -10.019836 3.3034058 -12.706421c2.2113647 -2.6865234 4.961914 -4.029846 8.251648 -4.029846zm11.349426 -21.753052l0 21.6297c-1.2884521 -1.7819214 -2.9606934 -3.225708 -5.0167847 -4.331421c-2.0560303 -1.1148682 -4.3999634 -1.6722412 -7.0317383 -1.6722412c-3.5912476 0 -6.8397827 0.94573975 -9.745728 2.8373413c-2.9058838 1.8915405 -5.085327 4.614685 -6.538269 8.169373c-1.4529419 3.5455933 -2.1794434 7.4977417 -2.1794434 11.856567c0 4.468506 0.7996216 8.425293 2.3987427 11.8703c1.6083374 3.435913 3.869995 6.1133423 6.785034 8.032349c2.9241943 1.9190063 6.127075 2.878479 9.608643 2.878479c5.373169 0 9.444214 -2.1657104 12.213013 -6.4971313l0 5.510193l6.8672485 0l0 -60.28351z" fill-rule="evenodd"/><path fill="#9b7c1d" d="m686.0383 676.80554c3.7557983 0 6.812439 1.4255371 9.170044 4.2766113c1.5352173 1.836731 2.4672852 4.591858 2.7962646 8.26532l-24.384888 0c0.2467041 -3.8105469 1.526062 -6.8535156 3.8379517 -9.128845c2.321106 -2.2753906 5.1812744 -3.413086 8.580627 -3.413086zm-0.082214355 -6.0858765c-6.031128 0 -10.938232 2.0286255 -14.7213745 6.0858765c-3.7832031 4.057312 -5.6747437 9.75946 -5.6747437 17.106384c0 7.100281 1.8687134 12.619629 5.606201 16.558105c3.746582 3.9293823 8.81366 5.894043 15.201111 5.894043c5.0716553 0 9.238586 -1.2336426 12.5008545 -3.7009277c3.262329 -2.4672241 5.496582 -5.9351196 6.702759 -10.4036255l-7.6484985 -0.9458008c-1.1240234 3.1252441 -2.6455078 5.4005737 -4.564514 6.826111c-1.9189453 1.4255371 -4.2354736 2.1383057 -6.949463 2.1383057c-3.6460571 0 -6.689026 -1.2747192 -9.128906 -3.8242798c-2.4398804 -2.5494995 -3.796875 -6.2229614 -4.070984 -11.020447l32.567993 0c0.027404785 -0.8772583 0.041137695 -1.5351562 0.041137695 -1.9738159c0 -7.2099 -1.8504639 -12.802368 -5.5513916 -16.777405c-3.7009277 -3.9750366 -8.470947 -5.9625244 -14.310181 -5.9625244z" fill-rule="evenodd"/><path stroke="#9b7c1d" stroke-width="2.0" stroke-linejoin="round" stroke-linecap="butt" d="m296.3736 661.4263c0.9320984 3.262268 2.3576355 7.429199 4.2766113 12.500793l6.2915344 16.69519l-20.437225 0l6.620514 -17.682068c1.3981018 -3.8105469 2.4809875 -7.6484985 3.2485657 -11.513916zm-4.1121216 -6.3326416l-23.151245 60.28351l8.470978 0l6.620514 -18.257751l25.207306 0l7.0317383 18.257751l9.087799 0l-24.67276 -60.28351z" fill-rule="evenodd"/><path stroke="#9b7c1d" stroke-width="2.0" stroke-linejoin="round" stroke-linecap="butt" d="m346.99384 670.71967c-1.7270813 0 -3.312561 0.4934082 -4.7563477 1.4803467c-1.4346924 0.98687744 -3.0018616 3.0292358 -4.701538 6.127014l0 -6.6204834l-6.6616516 0l0 43.670593l7.401825 0l0 -22.863281c0 -3.1252441 0.41122437 -6.003723 1.2336426 -8.635437c0.5482788 -1.7271118 1.4666748 -3.0749512 2.755127 -4.043579c1.2884521 -0.9777832 2.7414246 -1.4666748 4.358856 -1.4666748c1.8093262 0 3.6186523 0.53460693 5.428009 1.6036987l2.5494995 -6.8671875c-2.5769348 -1.5900269 -5.112732 -2.3850098 -7.607422 -2.3850098zm20.725098 -14.269043l-7.3606873 4.441101l0 10.814819l-5.428009 0l0 5.756958l5.428009 0l0 25.125c0 4.441101 0.3015442 7.356079 0.9046631 8.745056c0.6030884 1.3798828 1.6448364 2.49469 3.1252136 3.3445435c1.4803467 0.8498535 3.5638428 1.2747803 6.2504272 1.2747803c1.6448364 0 3.5090027 -0.21936035 5.5924683 -0.657959l-1.0691528 -6.538269c-1.3432922 0.19189453 -2.4261475 0.2878418 -3.2485657 0.2878418c-1.0965576 0 -1.9418335 -0.17816162 -2.535797 -0.5345459c-0.5848694 -0.35638428 -1.0097656 -0.8361206 -1.2747803 -1.43927c-0.25585938 -0.6030884 -0.38378906 -1.960083 -0.38378906 -4.070984l0 -25.536194l7.442932 0l0 -5.756958l-7.442932 0l0 -15.25592z" fill-rule="evenodd"/><path stroke="#9b7c1d" stroke-width="2.0" stroke-linejoin="round" stroke-linecap="butt" d="m404.15234 654.0656c-4.057312 0 -7.744507 0.68536377 -11.061615 2.0560303c-3.3171082 1.3707275 -5.839203 3.3811035 -7.5663147 6.031128c-1.7270813 2.6408691 -2.5906372 5.482788 -2.5906372 8.525757c0 2.7687988 0.7036438 5.272644 2.1109009 7.5114746c1.4164124 2.2296753 3.5638428 4.0983887 6.442322 5.60614c2.2205505 1.178833 6.09964 2.4353027 11.637299 3.7694702c5.5376587 1.3250122 9.115204 2.3027344 10.732666 2.9332886c2.5220947 0.95947266 4.331421 2.1474 5.4279785 3.5638428c1.0965881 1.4072266 1.644867 3.0566406 1.644867 4.948242c0 1.8641357 -0.5711365 3.58667 -1.7133789 5.1675415c-1.1331177 1.5717163 -2.8648071 2.8099365 -5.1950073 3.7145996c-2.3302002 0.9046631 -5.0167847 1.3569946 -8.059753 1.3569946c-3.4267578 0 -6.5108643 -0.59399414 -9.252258 -1.7819214c-2.7414246 -1.1970825 -4.765503 -2.7597046 -6.072235 -4.687805c-1.2976074 -1.9372559 -2.1246033 -4.4136353 -2.4809875 -7.429199l-7.525177 0.65789795c0.10964966 4.029907 1.2107849 7.643982 3.3034058 10.842285c2.1017456 3.189148 4.993927 5.5787964 8.676575 7.168762c3.6917725 1.5900269 8.26535 2.3850708 13.720764 2.3850708c4.304016 0 8.174011 -0.7858887 11.609894 -2.357666c3.4450684 -1.5808716 6.0859375 -3.7876587 7.922699 -6.6204834c1.8367615 -2.841919 2.755127 -5.866577 2.755127 -9.074036c0 -3.2348633 -0.8361511 -6.090515 -2.5083923 -8.566895c-1.6722717 -2.4855347 -4.262909 -4.5370483 -7.7719116 -6.15448c-2.412445 -1.0965576 -6.862671 -2.3758545 -13.350708 -3.8379517c-6.478882 -1.4711914 -10.485901 -2.9058838 -12.021088 -4.304016c-1.5626221 -1.3981323 -2.343933 -3.1800537 -2.343933 -5.345764c0 -2.494629 1.1011353 -4.6238403 3.3034058 -6.387451c2.2114258 -1.7727661 5.7295837 -2.6591797 10.554474 -2.6591797c4.632965 0 8.132843 0.97320557 10.499603 2.9196167c2.375885 1.9464111 3.7694397 4.82489 4.180664 8.635437l7.6485596 -0.5756836c-0.13708496 -3.536438 -1.1239929 -6.702759 -2.9607544 -9.499023c-1.836731 -2.7962036 -4.463928 -4.911682 -7.8815613 -6.3463135c-3.4084778 -1.4438477 -7.346985 -2.1657104 -11.815491 -2.1657104z" fill-rule="evenodd"/><path stroke="#9b7c1d" stroke-width="2.0" stroke-linejoin="round" stroke-linecap="butt" d="m456.21182 670.71967c-3.7557373 0 -7.232788 0.88635254 -10.431091 2.6591187c-3.1891785 1.7636719 -5.5650635 4.4136963 -7.1276855 7.9500732c-1.5625916 3.536438 -2.3439026 7.6622925 -2.3439026 12.377502c0 7.2921143 1.8139038 12.893738 5.4417114 16.80481c3.6369324 3.9019165 8.4435425 5.8529053 14.41983 5.8529053c4.7700806 0 8.790802 -1.4163818 12.062225 -4.2492065c3.2805786 -2.841919 5.3183594 -6.77124 6.113373 -11.788025l-7.278473 -0.9458008c-0.520874 3.7009277 -1.7544861 6.442322 -3.7008972 8.224243c-1.9464111 1.7819214 -4.3725586 2.6728516 -7.278473 2.6728516c-3.6186523 0 -6.5519714 -1.3295898 -8.799927 -3.9887695c-2.2479553 -2.6591187 -3.3719482 -6.921997 -3.3719482 -12.788635c0 -5.784363 1.1651001 -10.010681 3.4953003 -12.679016c2.3302002 -2.6774292 5.3594666 -4.0161743 9.087799 -4.0161743c2.4672852 0 4.569031 0.7402344 6.3052673 2.220581c1.7453613 1.4803467 2.9607239 3.6871948 3.6460571 6.6204834l7.196228 -1.1102905c-0.8498535 -4.4136353 -2.7825317 -7.817566 -5.7980957 -10.211731c-3.015564 -2.4033203 -6.8946533 -3.6049194 -11.637299 -3.6049194z" fill-rule="evenodd"/><path stroke="#9b7c1d" stroke-width="2.0" stroke-linejoin="round" stroke-linecap="butt" d="m508.55914 693.4596l0 2.7139893c0 3.262268 -0.39752197 5.729553 -1.1925049 7.4017944c-1.041748 2.1657104 -2.672882 3.8745728 -4.8934326 5.126465c-2.2205505 1.2427368 -4.756378 1.8641357 -7.607422 1.8641357c-2.8785095 0 -5.0670776 -0.65789795 -6.5657043 -1.9738159c-1.489502 -1.3158569 -2.234253 -2.9606934 -2.234253 -4.9345093c0 -1.2884521 0.34268188 -2.45813 1.0280457 -3.5090332c0.68533325 -1.0599976 1.6585388 -1.8641357 2.9195862 -2.4124146c1.2610474 -0.5482788 3.4130554 -1.041748 6.456024 -1.4803467c5.3731995 -0.7675781 9.403076 -1.699707 12.089661 -2.7962646zm-9.416779 -22.73993c-3.7557373 0 -7.059143 0.5162964 -9.910217 1.5488892c-2.8510437 1.0234375 -5.030487 2.4901123 -6.538269 4.3999634c-1.507782 1.9006958 -2.5906372 4.3999634 -3.2485657 7.4977417l7.237335 0.98687744c0.7950134 -3.0977783 2.0195007 -5.2543335 3.6734924 -6.4697266c1.6631165 -1.2244873 4.2354736 -1.836731 7.7170715 -1.836731c3.7283325 0 6.5382996 0.8361206 8.429871 2.5084229c1.3981018 1.2335815 2.097168 3.3582153 2.097168 6.3737183c0 0.27416992 -0.013702393 0.918396 -0.041107178 1.9327393c-2.8236694 0.98687744 -7.223633 1.836731 -13.199921 2.5494995c-2.933319 0.35638428 -5.1264343 0.7264404 -6.5794067 1.1102295c-1.9738159 0.5482788 -3.7511597 1.3569946 -5.3320312 2.4261475c-1.5717468 1.0691528 -2.846527 2.4901123 -3.8242798 4.2629395c-0.9686279 1.7636108 -1.4529419 3.7145996 -1.4529419 5.852844c0 3.6461182 1.2884521 6.6433716 3.865387 8.991821c2.5769348 2.3393555 6.2641296 3.5090332 11.061615 3.5090332c2.9058838 0 5.6244507 -0.47973633 8.155701 -1.43927c2.5403748 -0.95947266 5.1812744 -2.604309 7.922699 -4.9345093c0.21929932 2.0560303 0.71276855 3.8516846 1.4803467 5.386841l7.730774 0c-0.9320679 -1.6722412 -1.5579834 -3.4176025 -1.8778687 -5.236084c-0.31066895 -1.8275757 -0.46600342 -6.1818237 -0.46600342 -13.062805l0 -9.869019c0 -3.289734 -0.12335205 -5.5650635 -0.3701172 -6.826111c-0.43859863 -2.0286865 -1.2061768 -3.7055054 -2.3027954 -5.0305176c-1.0965576 -1.3341064 -2.8099365 -2.4398193 -5.1401367 -3.3170776c-2.3302002 -0.8772583 -5.3594666 -1.3158569 -9.087799 -1.3158569z" fill-rule="evenodd"/><path stroke="#9b7c1d" stroke-width="2.0" stroke-linejoin="round" stroke-linecap="butt" d="m546.2262 676.5177c3.1800537 0 5.9122925 1.3843994 8.196838 4.1532593c2.2936401 2.7687988 3.4404297 6.93573 3.4404297 12.500793c0 5.8392334 -1.1741943 10.152344 -3.522705 12.939453c-2.3393555 2.777954 -5.1538696 4.166931 -8.4435425 4.166931c-3.2348633 0 -5.98999 -1.3432617 -8.265381 -4.029846c-2.2753906 -2.6865845 -3.413025 -6.8398438 -3.413025 -12.459717c0 -5.619873 1.2107544 -9.901062 3.6323242 -12.843506c2.430725 -2.951538 5.222412 -4.427368 8.375061 -4.427368zm0.69903564 -5.7980347c-2.8510742 0 -5.2772217 0.55737305 -7.2784424 1.6722412c-2.0012207 1.1057129 -3.796875 2.7687988 -5.386902 4.98938l0 -5.6747437l-6.7438354 0l0 60.40692l7.4017944 0l0 -21.259644c1.2610474 1.5900269 2.8693237 2.9058838 4.82489 3.9476318c1.9646606 1.041748 4.180664 1.5626221 6.647949 1.5626221c3.3719482 0 6.5839233 -0.9503784 9.636047 -2.8510742c3.0612793 -1.9098511 5.3914795 -4.651245 6.9906006 -8.224243c1.6083374 -3.5820923 2.4124756 -7.607361 2.4124756 -12.075867c0 -4.166931 -0.72650146 -7.9957886 -2.1794434 -11.486511c-1.4529419 -3.499878 -3.6049805 -6.2092896 -6.4560547 -8.128235c-2.8510742 -1.9190063 -6.140747 -2.878479 -9.86908 -2.878479z" fill-rule="evenodd"/><path stroke="#9b7c1d" stroke-width="2.0" stroke-linejoin="round" stroke-linecap="butt" d="m602.2333 693.4596l0 2.7139893c0 3.262268 -0.39746094 5.729553 -1.1925049 7.4017944c-1.041748 2.1657104 -2.6728516 3.8745728 -4.8934326 5.126465c-2.22052 1.2427368 -4.7563477 1.8641357 -7.607422 1.8641357c-2.878479 0 -5.0670166 -0.65789795 -6.565674 -1.9738159c-1.489502 -1.3158569 -2.234253 -2.9606934 -2.234253 -4.9345093c0 -1.2884521 0.34265137 -2.45813 1.0280151 -3.5090332c0.68536377 -1.0599976 1.6585693 -1.8641357 2.9196167 -2.4124146c1.2610474 -0.5482788 3.413086 -1.041748 6.4560547 -1.4803467c5.373169 -0.7675781 9.403015 -1.699707 12.0896 -2.7962646zm-9.416748 -22.73993c-3.7557373 0 -7.059143 0.5162964 -9.910217 1.5488892c-2.8510742 1.0234375 -5.0305176 2.4901123 -6.538269 4.3999634c-1.5077515 1.9006958 -2.5906372 4.3999634 -3.2485962 7.4977417l7.2373657 0.98687744c0.7949829 -3.0977783 2.0195312 -5.2543335 3.673462 -6.4697266c1.663147 -1.2244873 4.2355347 -1.836731 7.717102 -1.836731c3.7283325 0 6.538269 0.8361206 8.429871 2.5084229c1.3981323 1.2335815 2.097168 3.3582153 2.097168 6.3737183c0 0.27416992 -0.01373291 0.918396 -0.041137695 1.9327393c-2.8236084 0.98687744 -7.223633 1.836731 -13.19989 2.5494995c-2.9332886 0.35638428 -5.126465 0.7264404 -6.5794067 1.1102295c-1.9738159 0.5482788 -3.7511597 1.3569946 -5.3320312 2.4261475c-1.5717773 1.0691528 -2.8464966 2.4901123 -3.8242798 4.2629395c-0.9686279 1.7636108 -1.4529419 3.7145996 -1.4529419 5.852844c0 3.6461182 1.2884521 6.6433716 3.8653564 8.991821c2.5769653 2.3393555 6.26416 3.5090332 11.0616455 3.5090332c2.9058838 0 5.6244507 -0.47973633 8.155701 -1.43927c2.5404053 -0.95947266 5.1812744 -2.604309 7.9226685 -4.9345093c0.21936035 2.0560303 0.71276855 3.8516846 1.4804077 5.386841l7.730774 0c-0.9320679 -1.6722412 -1.5580444 -3.4176025 -1.8778687 -5.236084c-0.31072998 -1.8275757 -0.46606445 -6.1818237 -0.46606445 -13.062805l0 -9.869019c0 -3.289734 -0.12335205 -5.5650635 -0.37005615 -6.826111c-0.43865967 -2.0286865 -1.2062378 -3.7055054 -2.3027954 -5.0305176c-1.0965576 -1.3341064 -2.8099365 -2.4398193 -5.1401978 -3.3170776c-2.3302002 -0.8772583 -5.359436 -1.3158569 -9.087769 -1.3158569z" fill-rule="evenodd"/><path stroke="#9b7c1d" stroke-width="2.0" stroke-linejoin="round" stroke-linecap="butt" d="m637.6798 676.8467c3.3719482 0 6.2092896 1.3981323 8.512085 4.194336c2.3027954 2.7962646 3.4541626 7.182495 3.4541626 13.158752c0 5.4280396 -1.1331177 9.467041 -3.399353 12.117065c-2.25708 2.6408691 -5.0030518 3.9613037 -8.237915 3.9613037c-3.2074585 0 -5.98999 -1.3843994 -8.347656 -4.1531982c-2.357605 -2.7688599 -3.536377 -6.949524 -3.536377 -12.541992c0 -5.784363 1.1011353 -10.019836 3.3034058 -12.706421c2.2113647 -2.6865234 4.961914 -4.029846 8.251648 -4.029846zm11.349426 -21.753052l0 21.6297c-1.2884521 -1.7819214 -2.9606934 -3.225708 -5.0167847 -4.331421c-2.0560303 -1.1148682 -4.3999634 -1.6722412 -7.0317383 -1.6722412c-3.5912476 0 -6.8397827 0.94573975 -9.745728 2.8373413c-2.9058838 1.8915405 -5.085327 4.614685 -6.538269 8.169373c-1.4529419 3.5455933 -2.1794434 7.4977417 -2.1794434 11.856567c0 4.468506 0.7996216 8.425293 2.3987427 11.8703c1.6083374 3.435913 3.869995 6.1133423 6.785034 8.032349c2.9241943 1.9190063 6.127075 2.878479 9.608643 2.878479c5.373169 0 9.444214 -2.1657104 12.213013 -6.4971313l0 5.510193l6.8672485 0l0 -60.28351z" fill-rule="evenodd"/><path stroke="#9b7c1d" stroke-width="2.0" stroke-linejoin="round" stroke-linecap="butt" d="m686.0383 676.80554c3.7557983 0 6.812439 1.4255371 9.170044 4.2766113c1.5352173 1.836731 2.4672852 4.591858 2.7962646 8.26532l-24.384888 0c0.2467041 -3.8105469 1.526062 -6.8535156 3.8379517 -9.128845c2.321106 -2.2753906 5.1812744 -3.413086 8.580627 -3.413086zm-0.082214355 -6.0858765c-6.031128 0 -10.938232 2.0286255 -14.7213745 6.0858765c-3.7832031 4.057312 -5.6747437 9.75946 -5.6747437 17.106384c0 7.100281 1.8687134 12.619629 5.606201 16.558105c3.746582 3.9293823 8.81366 5.894043 15.201111 5.894043c5.0716553 0 9.238586 -1.2336426 12.5008545 -3.7009277c3.262329 -2.4672241 5.496582 -5.9351196 6.702759 -10.4036255l-7.6484985 -0.9458008c-1.1240234 3.1252441 -2.6455078 5.4005737 -4.564514 6.826111c-1.9189453 1.4255371 -4.2354736 2.1383057 -6.949463 2.1383057c-3.6460571 0 -6.689026 -1.2747192 -9.128906 -3.8242798c-2.4398804 -2.5494995 -3.796875 -6.2229614 -4.070984 -11.020447l32.567993 0c0.027404785 -0.8772583 0.041137695 -1.5351562 0.041137695 -1.9738159c0 -7.2099 -1.8504639 -12.802368 -5.5513916 -16.777405c-3.7009277 -3.9750366 -8.470947 -5.9625244 -14.310181 -5.9625244z" fill-rule="evenodd"/></g></svg>